<svg width="63" height="38" xmlns="http://www.w3.org/2000/svg"><g fill-rule="nonzero" fill="none"><path d="m53.432 12.038.1.009a.47.47 0 0 1 .251.133.47.47 0 0 1 .134.252l.009.1v1.9l-.01.1a.47.47 0 0 1-.133.252.47.47 0 0 1-.251.133l-.1.009h-1.425l-.146.005c-.28.02-.484.097-.614.233a.862.862 0 0 0-.222.534l-.006.14v.38h3.755l.1.006c.128.015.228.06.299.136.059.064.107.126.143.186l.047.09 1.862 4.959 1.938-4.959.057-.1c.042-.064.093-.126.152-.185.07-.07.17-.113.298-.128l.1-.005h2.642l.075.008a.443.443 0 0 1 .21.116.37.37 0 0 1 .133.275c0 .05-.006.101-.017.152l-.021.076-5.358 12.445-.058.1a1.083 1.083 0 0 1-.16.185.52.52 0 0 1-.308.128l-.101.005h-2.584l-.083-.007a.415.415 0 0 1-.212-.107.372.372 0 0 1-.123-.285l.01-.095.028-.133 1.52-3.591-2.709-6.385-1.635.001v6.498l-.01.1a.47.47 0 0 1-.133.252.47.47 0 0 1-.251.133l-.1.009h-2.736l-.1-.009a.47.47 0 0 1-.252-.133.47.47 0 0 1-.133-.252l-.01-.1v-6.498h-1.386l-.1-.009a.47.47 0 0 1-.252-.134.47.47 0 0 1-.133-.25l-.01-.101v-1.9l.01-.1a.47.47 0 0 1 .133-.252.47.47 0 0 1 .251-.133l.1-.009h1.388v-.475l.005-.279c.035-.818.226-1.469.574-1.954.386-.538.922-.918 1.606-1.14a7.253 7.253 0 0 1 1.968-.325l.369-.007h1.615Zm-33.879.76.1.009a.47.47 0 0 1 .252.133.47.47 0 0 1 .133.252l.009.1v7.714l.006.214c.031.553.188.98.469 1.277.317.336.779.504 1.387.504.595 0 1.051-.168 1.368-.504.281-.298.438-.724.47-1.277l.005-.214v-7.714l.006-.08a.46.46 0 0 1 .146-.271.505.505 0 0 1 .25-.134l.092-.009h3.078l.093.009c.09.018.173.062.249.133a.46.46 0 0 1 .146.271l.006.081v7.771l-.006.32c-.041 1.048-.286 1.926-.735 2.634-.494.78-1.184 1.353-2.071 1.72-.887.367-1.913.551-3.078.551-1.19 0-2.23-.184-3.116-.551-.887-.367-1.577-.94-2.071-1.72-.45-.708-.694-1.586-.735-2.634l-.006-.32v-7.771l.009-.1a.47.47 0 0 1 .133-.252.47.47 0 0 1 .252-.133l.1-.009h3.059Zm24.699 3.42.1.009a.47.47 0 0 1 .251.133.47.47 0 0 1 .134.252l.009.1v8.892l-.01.1a.47.47 0 0 1-.133.252.47.47 0 0 1-.25.133l-.101.009h-2.793l-.1-.009a.47.47 0 0 1-.252-.133.47.47 0 0 1-.133-.252l-.01-.1v-8.892l.01-.1a.47.47 0 0 1 .133-.252.47.47 0 0 1 .251-.133l.1-.009h2.794Zm-9.778-3.42.362.006c.951.033 1.79.195 2.516.488.817.33 1.45.83 1.9 1.501.45.671.675 1.514.675 2.527 0 1.013-.225 1.843-.675 2.489-.45.646-1.083 1.124-1.9 1.434-.726.276-1.565.43-2.516.46l-.362.006H32.65v3.895l-.01.1a.47.47 0 0 1-.133.252.47.47 0 0 1-.251.133l-.1.009h-3.211l-.1-.009a.47.47 0 0 1-.252-.133.47.47 0 0 1-.133-.252l-.01-.1V13.292l.01-.1a.47.47 0 0 1 .133-.252.47.47 0 0 1 .251-.133l.1-.009h5.53Zm-.095 3.059h-1.805v2.793h1.805c.38 0 .7-.11.96-.332.259-.222.389-.567.389-1.036 0-.367-.102-.697-.304-.988-.203-.291-.551-.437-1.045-.437ZM44.214 12l.1.009a.508.508 0 0 1 .407.404l.006.081v1.995l-.006.08a.508.508 0 0 1-.406.404l-.101.01h-2.717l-.1-.009a.47.47 0 0 1-.252-.133.47.47 0 0 1-.133-.252l-.01-.1v-1.995l.01-.1a.47.47 0 0 1 .133-.252.47.47 0 0 1 .251-.133l.1-.009h2.718Z" fill="#FFF"/><path d="M38 0 26.936 11.801l-2.69-.003-.188.013c-.379.07-.63.205-.838.4-.242.227-.4.518-.45.847l-.015.16-.003 7.522-1.461 1.11-.042-.039c-.104-.11-.179-.314-.198-.648l-.004-.184v-7.687l-.013-.189c-.068-.39-.21-.656-.422-.87a1.469 1.469 0 0 0-.777-.41l-.194-.021-.088-.004h-3.059l-.189.013c-.39.068-.656.21-.87.422-.213.214-.354.48-.41.777l-.021.194L15 21.063l.006.339c.048 1.235.34 2.284.89 3.151.202.318.43.608.685.87L0 38l13-20H8L20 3l18-3Z" fill="#FF7964"/></g></svg>
