<?xml version="1.0" encoding="UTF-8"?>
<svg width="64px" height="40px" viewBox="0 0 64 40" version="1.1" xmlns="http://www.w3.org/2000/svg" xmlns:xlink="http://www.w3.org/1999/xlink">
    <title>logo</title>
    <g id="logo" stroke="none" stroke-width="1" fill="none" fill-rule="evenodd">
        <g id="Group">
            <polygon id="Path-2" fill="#3FA9F5" points="22 5 40 2 25 18 31 18 2 40 15 20 10 20"></polygon>
            <polygon id="Path-2" fill="#FFEF6F" points="20 3 38 -5.27355937e-15 23 16 29 16 1.687539e-14 38 13 18 8 18"></polygon>
            <g id="Text" transform="translate(16.000000, 12.000000)" fill="#242430" fill-rule="nonzero">
                <path d="M5.928,14.288 C7.09333333,14.288 8.11933333,14.1043333 9.006,13.737 C9.89266667,13.3696667 10.583,12.7965 11.077,12.0175 C11.571,11.2385 11.818,10.2536667 11.818,9.063 L11.818,9.063 L11.818,1.292 C11.818,1.15266667 11.7673333,1.0355 11.666,0.9405 C11.5646667,0.8455 11.4506667,0.798 11.324,0.798 L11.324,0.798 L8.246,0.798 C8.11933333,0.798 8.00533333,0.8455 7.904,0.9405 C7.80266667,1.0355 7.752,1.15266667 7.752,1.292 L7.752,1.292 L7.752,9.006 C7.752,9.66466667 7.59366667,10.1618333 7.277,10.4975 C6.96033333,10.8331667 6.50433333,11.001 5.909,11.001 C5.301,11.001 4.83866667,10.8331667 4.522,10.4975 C4.20533333,10.1618333 4.047,9.66466667 4.047,9.006 L4.047,9.006 L4.047,1.292 C4.047,1.15266667 3.9995,1.0355 3.9045,0.9405 C3.8095,0.8455 3.69233333,0.798 3.553,0.798 L3.553,0.798 L0.494,0.798 C0.354666667,0.798 0.2375,0.8455 0.1425,0.9405 C0.0475,1.0355 0,1.15266667 0,1.292 L0,1.292 L0,9.063 C0,10.2536667 0.247,11.2385 0.741,12.0175 C1.235,12.7965 1.92533333,13.3696667 2.812,13.737 C3.69866667,14.1043333 4.73733333,14.288 5.928,14.288 Z" id="Path"></path>
                <path d="M18.4736927,0.798 L18.8357482,0.804098765 C19.7871556,0.836625514 20.6259704,0.999259259 21.3521927,1.292 C22.1691927,1.62133333 22.802526,2.12166667 23.2521927,2.793 C23.7018593,3.46433333 23.9266927,4.30666667 23.9266927,5.32 C23.9266927,6.33333333 23.7018593,7.163 23.2521927,7.809 C22.802526,8.455 22.1691927,8.93316667 21.3521927,9.2435 C20.5351927,9.55383333 19.5756927,9.709 18.4736927,9.709 L18.4736927,9.709 L16.6496927,9.709 L16.6496927,13.604 L16.6407864,13.7043437 C16.6229739,13.8005312 16.5784427,13.88425 16.5071927,13.9555 C16.4121927,14.0505 16.295026,14.098 16.1556927,14.098 L16.1556927,14.098 L12.9446927,14.098 L12.8443489,14.0890937 C12.7481614,14.0712812 12.6644427,14.02675 12.5931927,13.9555 C12.4981927,13.8605 12.4506927,13.7433333 12.4506927,13.604 L12.4506927,13.604 L12.4506927,1.292 L12.4595989,1.19165625 C12.4774114,1.09546875 12.5219427,1.01175 12.5931927,0.9405 C12.6881927,0.8455 12.8053593,0.798 12.9446927,0.798 L12.9446927,0.798 L18.4736927,0.798 Z M18.3786927,3.857 L16.5736927,3.857 L16.5736927,6.65 L18.3786927,6.65 C18.7586927,6.65 19.078526,6.53916667 19.3381927,6.3175 C19.5978593,6.09583333 19.7276927,5.75066667 19.7276927,5.282 C19.7276927,4.91466667 19.6263593,4.58533333 19.4236927,4.294 C19.221026,4.00266667 18.8726927,3.857 18.3786927,3.857 L18.3786927,3.857 Z" id="Combined-Shape"></path>
                <path d="M28.2517957,4.218 L28.3521395,4.22690625 C28.448327,4.24471875 28.5320457,4.28925 28.6032957,4.3605 C28.6982957,4.4555 28.7457957,4.57266667 28.7457957,4.712 L28.7457957,4.712 L28.7457957,13.604 L28.7368895,13.7043438 C28.719077,13.8005313 28.6745457,13.88425 28.6032957,13.9555 C28.5082957,14.0505 28.3911291,14.098 28.2517957,14.098 L28.2517957,14.098 L25.4587957,14.098 L25.358452,14.0890938 C25.2622645,14.0712813 25.1785457,14.02675 25.1072957,13.9555 C25.0122957,13.8605 24.9647957,13.7433333 24.9647957,13.604 L24.9647957,13.604 L24.9647957,4.712 L24.973702,4.61165625 C24.9915145,4.51546875 25.0360457,4.43175 25.1072957,4.3605 C25.2022957,4.2655 25.3194624,4.218 25.4587957,4.218 L25.4587957,4.218 L28.2517957,4.218 Z M28.2137957,0 L28.3147332,0.00890625 C28.4121082,0.02671875 28.4987957,0.07125 28.5747957,0.1425 C28.6761291,0.2375 28.7267957,0.354666667 28.7267957,0.494 L28.7267957,0.494 L28.7267957,2.489 L28.7207157,2.56994 C28.7045024,2.67431333 28.6558624,2.7645 28.5747957,2.8405 C28.4734624,2.9355 28.3531291,2.983 28.2137957,2.983 L28.2137957,2.983 L25.4967957,2.983 L25.396452,2.97409375 C25.3002645,2.95628125 25.2165457,2.91175 25.1452957,2.8405 C25.0502957,2.7455 25.0027957,2.62833333 25.0027957,2.489 L25.0027957,2.489 L25.0027957,0.494 L25.011702,0.39365625 C25.0295145,0.29746875 25.0740457,0.21375 25.1452957,0.1425 C25.2402957,0.0475 25.3574624,0 25.4967957,0 L25.4967957,0 L28.2137957,0 Z" id="Combined-Shape"></path>
                <path d="M34.5246006,14.098 C34.6639339,14.098 34.7811006,14.0505 34.8761006,13.9555 C34.9711006,13.8605 35.0186006,13.7433333 35.0186006,13.604 L35.0186006,13.604 L35.0186006,7.106 L37.2416006,7.106 C37.3809339,7.106 37.4981006,7.0585 37.5931006,6.9635 C37.6881006,6.8685 37.7356006,6.75133333 37.7356006,6.612 L37.7356006,6.612 L37.7356006,4.712 C37.7356006,4.57266667 37.6881006,4.4555 37.5931006,4.3605 C37.4981006,4.2655 37.3809339,4.218 37.2416006,4.218 L37.2416006,4.218 L35.0186006,4.218 L35.0186006,3.838 C35.0186006,3.54666667 35.0946006,3.32183333 35.2466006,3.1635 C35.3986006,3.00516667 35.6519339,2.926 36.0066006,2.926 L36.0066006,2.926 L37.4316006,2.926 C37.5709339,2.926 37.6881006,2.8785 37.7831006,2.7835 C37.8781006,2.6885 37.9256006,2.57133333 37.9256006,2.432 L37.9256006,2.432 L37.9256006,0.532 C37.9256006,0.392666667 37.8781006,0.2755 37.7831006,0.1805 C37.6881006,0.0855 37.5709339,0.038 37.4316006,0.038 L37.4316006,0.038 L35.8166006,0.038 C34.9426006,0.038 34.1636006,0.148833333 33.4796006,0.3705 C32.7956006,0.592166667 32.2604339,0.972166667 31.8741006,1.5105 C31.4877673,2.04883333 31.2946006,2.793 31.2946006,3.743 L31.2946006,3.743 L31.2946006,4.218 L29.9076006,4.218 C29.7682673,4.218 29.6511006,4.2655 29.5561006,4.3605 C29.4611006,4.4555 29.4136006,4.57266667 29.4136006,4.712 L29.4136006,4.712 L29.4136006,6.612 C29.4136006,6.75133333 29.4611006,6.8685 29.5561006,6.9635 C29.6511006,7.0585 29.7682673,7.106 29.9076006,7.106 L29.9076006,7.106 L31.2946006,7.106 L31.2946006,13.604 C31.2946006,13.7433333 31.3421006,13.8605 31.4371006,13.9555 C31.5321006,14.0505 31.6492673,14.098 31.7886006,14.098 L31.7886006,14.098 L34.5246006,14.098 Z" id="Path"></path>
                <path d="M40.8067297,17.708 C40.984063,17.708 41.1202297,17.6636667 41.2152297,17.575 C41.3102297,17.4863333 41.383063,17.3913333 41.4337297,17.29 L41.4337297,17.29 L46.7917297,4.845 C46.817063,4.769 46.8297297,4.693 46.8297297,4.617 C46.8297297,4.51566667 46.7853963,4.42383333 46.6967297,4.3415 C46.608063,4.25916667 46.513063,4.218 46.4117297,4.218 L46.4117297,4.218 L43.7707297,4.218 C43.5933963,4.218 43.4603963,4.26233333 43.3717297,4.351 C43.283063,4.43966667 43.2133963,4.53466667 43.1627297,4.636 L43.1627297,4.636 L41.2247297,9.595 L39.3627297,4.636 C39.3247297,4.54733333 39.2613963,4.4555 39.1727297,4.3605 C39.084063,4.2655 38.951063,4.218 38.7737297,4.218 L38.7737297,4.218 L36.1137297,4.218 C35.9997297,4.218 35.901563,4.26233333 35.8192297,4.351 C35.7368963,4.43966667 35.683063,4.541 35.6577297,4.655 C35.6577297,4.70566667 35.6703963,4.769 35.6957297,4.845 L35.6957297,4.845 L39.3627297,13.49 L37.8427297,17.081 C37.830063,17.1316667 37.820563,17.176 37.8142297,17.214 C37.8078963,17.252 37.8047297,17.2836667 37.8047297,17.309 C37.8047297,17.423 37.8458963,17.518 37.9282297,17.594 C38.010563,17.67 38.1087297,17.708 38.2227297,17.708 L38.2227297,17.708 L40.8067297,17.708 Z" id="Path"></path>
            </g>
        </g>
    </g>
</svg>