<?xml version="1.0" encoding="UTF-8"?>
<svg width="64px" height="40px" viewBox="0 0 64 40" version="1.1" xmlns="http://www.w3.org/2000/svg" xmlns:xlink="http://www.w3.org/1999/xlink">
    <title>logo--mono</title>
    <g id="logo--mono" stroke="none" stroke-width="1" fill="none" fill-rule="evenodd">
        <path d="M38,0 L26.936,11.801 L24.246,11.798 L24.0576626,11.8114972 C23.679317,11.8811793 23.4285093,12.0155405 23.2200589,12.2109628 C22.978322,12.4375911 22.8208938,12.7294893 22.7699312,13.0575612 L22.7548094,13.2170937 L22.752,20.74 L21.2906067,21.8495287 L21.2493937,21.8112796 L21.2493937,21.8112796 C21.1446426,21.7002434 21.0701513,21.4973291 21.051272,21.1631669 L21.0466233,20.9785529 L21.047,13.292 L21.0341779,13.1032464 C20.9664316,12.7128684 20.8247834,12.4465698 20.6116068,12.2333932 C20.3984302,12.0202166 20.1321316,11.8785684 19.835433,11.8236242 L19.6414098,11.8019158 L19.553,11.798 L16.494,11.798 L16.3052464,11.8108221 C15.9148684,11.8785684 15.6485698,12.0202166 15.4353932,12.2333932 C15.2222166,12.4465698 15.0805684,12.7128684 15.0256242,13.009567 L15.0039158,13.2035902 L15,21.063 L15.0063075,21.4017804 C15.0542202,22.6371743 15.3468053,23.6862292 15.8964914,24.553042 C16.0978149,24.8705137 16.3264378,25.1606695 16.5814637,25.422946 L0,38 L13,18 L8,18 L20,3 L38,0 Z M53.4316006,12.038 L53.5319443,12.0469062 C53.6281318,12.0647187 53.7118506,12.10925 53.7831006,12.1805 C53.8543506,12.25175 53.8988818,12.3354687 53.9166943,12.4316562 L53.9256006,12.532 L53.9256006,14.432 L53.9166943,14.5323437 C53.8988818,14.6285312 53.8543506,14.71225 53.7831006,14.7835 C53.7118506,14.85475 53.6281318,14.8992812 53.5319443,14.9170937 L53.4316006,14.926 L52.0066006,14.926 L51.8608047,14.9308469 C51.581621,14.9502347 51.3768863,15.0277857 51.2466006,15.1635 C51.1199339,15.2954444 51.046045,15.4735694 51.0249339,15.697875 L51.0186006,15.838 L51.0186006,16.218 L54.7737297,16.218 L54.8748097,16.2237 C55.0024897,16.2389 55.1017963,16.2845 55.1727297,16.3605 C55.2318408,16.4238333 55.2796926,16.4857593 55.3162852,16.5462778 L55.3627297,16.636 L57.2247297,21.595 L59.1627297,16.636 L59.2197297,16.5367778 C59.2619519,16.472037 59.3126185,16.4101111 59.3717297,16.351 C59.442663,16.2800667 59.5419697,16.2375067 59.6696497,16.22332 L59.7707297,16.218 L62.4117297,16.218 L62.4865422,16.2257187 C62.5601672,16.2411562 62.6302297,16.27975 62.6967297,16.3415 C62.7853963,16.4238333 62.8297297,16.5156667 62.8297297,16.617 C62.8297297,16.6676667 62.8241,16.7183333 62.8128408,16.769 L62.7917297,16.845 L57.4337297,29.29 L57.3756741,29.3892222 C57.3320445,29.453963 57.278563,29.5158889 57.2152297,29.575 C57.1392297,29.6459333 57.036883,29.6884933 56.9081897,29.70268 L56.8067297,29.708 L54.2227297,29.708 L54.1401984,29.700875 C54.0606359,29.686625 53.9899797,29.651 53.9282297,29.594 C53.8458963,29.518 53.8047297,29.423 53.8047297,29.309 L53.8142297,29.214 L53.8427297,29.081 L55.3627297,25.49 L52.654,19.105 L51.0186006,19.106 L51.0186006,25.604 L51.0096943,25.7043437 C50.9918818,25.8005312 50.9473506,25.88425 50.8761006,25.9555 C50.8048506,26.02675 50.7211318,26.0712812 50.6249443,26.0890937 L50.5246006,26.098 L47.7886006,26.098 L47.6882568,26.0890937 C47.5920693,26.0712812 47.5083506,26.02675 47.4371006,25.9555 C47.3658506,25.88425 47.3213193,25.8005312 47.3035068,25.7043437 L47.2946006,25.604 L47.2946006,19.106 L45.9076006,19.106 L45.8072568,19.0970937 C45.7110693,19.0792812 45.6273506,19.03475 45.5561006,18.9635 C45.4848506,18.89225 45.4403193,18.8085312 45.4225068,18.7123437 L45.4136006,18.612 L45.4136006,16.712 L45.4225068,16.6116562 C45.4403193,16.5154687 45.4848506,16.43175 45.5561006,16.3605 C45.6273506,16.28925 45.7110693,16.2447187 45.8072568,16.2269062 L45.9076006,16.218 L47.2946006,16.218 L47.2946006,15.743 L47.3003956,15.464175 C47.3351656,14.646225 47.5264006,13.995 47.8741006,13.5105 C48.2604339,12.9721667 48.7956006,12.5921667 49.4796006,12.3705 C50.0658863,12.1805 50.7219679,12.0719286 51.4478455,12.0447857 L51.8166006,12.038 L53.4316006,12.038 Z M19.553,12.798 L19.6533437,12.8069062 C19.7495312,12.8247187 19.83325,12.86925 19.9045,12.9405 C19.97575,13.01175 20.0202812,13.0954687 20.0380937,13.1916562 L20.047,13.292 L20.047,21.006 L20.0528642,21.2195741 C20.0841399,21.7731543 20.2405185,22.1991296 20.522,22.4975 C20.8386667,22.8331667 21.301,23.001 21.909,23.001 C22.5043333,23.001 22.9603333,22.8331667 23.277,22.4975 C23.5584815,22.1991296 23.7148601,21.7731543 23.7461358,21.2195741 L23.752,21.006 L23.752,13.292 L23.75808,13.21106 C23.7742933,13.1066867 23.8229333,13.0165 23.904,12.9405 C23.98,12.86925 24.063125,12.8247187 24.153375,12.8069062 L24.246,12.798 L27.324,12.798 L27.416625,12.8069062 C27.506875,12.8247187 27.59,12.86925 27.666,12.9405 C27.7470667,13.0165 27.7957067,13.1066867 27.81192,13.21106 L27.818,13.292 L27.818,21.063 L27.811876,21.382624 C27.7710496,22.4310262 27.5260909,23.3093182 27.077,24.0175 C26.583,24.7965 25.8926667,25.3696667 25.006,25.737 C24.1193333,26.1043333 23.0933333,26.288 21.928,26.288 C20.7373333,26.288 19.6986667,26.1043333 18.812,25.737 C17.9253333,25.3696667 17.235,24.7965 16.741,24.0175 C16.2919091,23.3093182 16.0469504,22.4310262 16.006124,21.382624 L16,21.063 L16,13.292 L16.0089062,13.1916562 C16.0267187,13.0954687 16.07125,13.01175 16.1425,12.9405 C16.21375,12.86925 16.2974687,12.8247187 16.3936562,12.8069062 L16.494,12.798 L19.553,12.798 Z M44.2517957,16.218 L44.3521395,16.2269063 C44.448327,16.2447188 44.5320457,16.28925 44.6032957,16.3605 C44.6745457,16.43175 44.719077,16.5154688 44.7368895,16.6116563 L44.7457957,16.712 L44.7457957,25.604 L44.7368895,25.7043437 C44.719077,25.8005312 44.6745457,25.88425 44.6032957,25.9555 C44.5320457,26.02675 44.448327,26.0712813 44.3521395,26.0890938 L44.2517957,26.098 L41.4587957,26.098 L41.358452,26.0890938 C41.2622645,26.0712812 41.1785457,26.02675 41.1072957,25.9555 C41.0360457,25.88425 40.9915145,25.8005313 40.973702,25.7043437 L40.9647957,25.604 L40.9647957,16.712 L40.973702,16.6116563 C40.9915145,16.5154688 41.0360457,16.43175 41.1072957,16.3605 C41.1785457,16.28925 41.2622645,16.2447188 41.358452,16.2269063 L41.4587957,16.218 L44.2517957,16.218 Z M34.4736927,12.798 L34.8357482,12.8040988 C35.7871556,12.8366255 36.6259704,12.9992593 37.3521927,13.292 C38.1691927,13.6213333 38.802526,14.1216667 39.2521927,14.793 C39.7018593,15.4643333 39.9266927,16.3066667 39.9266927,17.32 C39.9266927,18.3333333 39.7018593,19.163 39.2521927,19.809 C38.802526,20.455 38.1691927,20.9331667 37.3521927,21.2435 C36.6259704,21.5193519 35.7871556,21.6726029 34.8357482,21.7032531 L34.4736927,21.709 L32.6496927,21.709 L32.6496927,25.604 L32.6407864,25.7043437 C32.6229739,25.8005312 32.5784427,25.88425 32.5071927,25.9555 C32.4359427,26.02675 32.3522239,26.0712812 32.2560364,26.0890937 L32.1556927,26.098 L28.9446927,26.098 L28.8443489,26.0890937 C28.7481614,26.0712812 28.6644427,26.02675 28.5931927,25.9555 C28.5219427,25.88425 28.4774114,25.8005312 28.4595989,25.7043437 L28.4506927,25.604 L28.4506927,13.292 L28.4595989,13.1916562 C28.4774114,13.0954687 28.5219427,13.01175 28.5931927,12.9405 C28.6644427,12.86925 28.7481614,12.8247187 28.8443489,12.8069062 L28.9446927,12.798 L34.4736927,12.798 Z M34.3786927,15.857 L32.5736927,15.857 L32.5736927,18.65 L34.3786927,18.65 C34.7586927,18.65 35.078526,18.5391667 35.3381927,18.3175 C35.5978593,18.0958333 35.7276927,17.7506667 35.7276927,17.282 C35.7276927,16.9146667 35.6263593,16.5853333 35.4236927,16.294 C35.221026,16.0026667 34.8726927,15.857 34.3786927,15.857 Z M44.2137957,12 L44.3147332,12.0089063 C44.4121082,12.0267187 44.4987957,12.07125 44.5747957,12.1425 C44.6558624,12.2185 44.7045024,12.3086867 44.7207157,12.41306 L44.7267957,12.494 L44.7267957,14.489 L44.7207157,14.56994 C44.7045024,14.6743133 44.6558624,14.7645 44.5747957,14.8405 C44.4987957,14.91175 44.4121082,14.9562812 44.3147332,14.9740937 L44.2137957,14.983 L41.4967957,14.983 L41.396452,14.9740937 C41.3002645,14.9562812 41.2165457,14.91175 41.1452957,14.8405 C41.0740457,14.76925 41.0295145,14.6855312 41.011702,14.5893437 L41.0027957,14.489 L41.0027957,12.494 L41.011702,12.3936562 C41.0295145,12.2974688 41.0740457,12.21375 41.1452957,12.1425 C41.2165457,12.07125 41.3002645,12.0267187 41.396452,12.0089063 L41.4967957,12 L44.2137957,12 Z" id="Shape" fill="#242430"></path>
    </g>
</svg>