<?xml version="1.0" encoding="UTF-8"?><!DOCTYPE svg PUBLIC "-//W3C//DTD SVG 1.1//EN" "http://www.w3.org/Graphics/SVG/1.1/DTD/svg11.dtd"><svg xmlns="http://www.w3.org/2000/svg" xmlns:xlink="http://www.w3.org/1999/xlink"><defs/><symbol id="afterpay" viewBox="0 0 32 32"><title>afterpay</title><g id="afterpay" stroke="none" stroke-width="1" fill-rule="evenodd"><path d="M24.6200016,10.6553133 L21.8347382,9.00478681 L19.0494748,7.35426035 C17.1926326,6.32268131 14.8200008,7.66373406 14.8200008,9.83005004 L14.8200008,10.2426817 C14.8200008,10.4489975 14.9231587,10.6553133 15.1294745,10.7584712 L16.4705272,11.4805765 C16.8831588,11.6868923 17.2957905,11.3774186 17.2957905,10.964787 L17.2957905,10.1395237 C17.2957905,9.72689213 17.7084221,9.41741842 18.1210537,9.62373423 L20.7000013,11.0679449 L23.175791,12.6153134 C23.5884226,12.8216292 23.5884226,13.3374188 23.175791,13.5437346 L20.5968434,14.9879452 L18.0178958,16.6384717 C17.6052642,16.8447875 17.1926326,16.5353138 17.1926326,16.1226822 L17.1926326,15.7100506 C17.1926326,13.5437346 14.8200008,12.2026818 12.9631585,13.2342609 L10.1778951,14.8847873 L7.3926317,16.5353138 C5.53578943,17.5668928 5.53578943,20.3521562 7.3926317,21.3837353 L10.1778951,23.0342617 L12.9631585,24.6847882 C14.8200008,25.7163672 17.1926326,24.3753145 17.1926326,22.2089985 L17.1926326,21.7963669 C17.1926326,21.5900511 17.0894747,21.3837353 16.8831588,21.2805774 L15.5421061,20.558472 C15.1294745,20.3521562 14.7168429,20.6616299 14.7168429,21.0742615 L14.7168429,21.8995248 C14.7168429,22.3121564 14.3042113,22.6216301 13.8915796,22.4153143 L11.312632,20.9711036 L8.73368445,19.4237351 C8.32105283,19.2174193 8.32105283,18.7016298 8.73368445,18.495314 L11.312632,17.0511033 L13.8915796,15.6068926 C14.3042113,15.4005768 14.7168429,15.7100506 14.7168429,16.1226822 L14.7168429,16.5353138 C14.7168429,18.7016298 17.0894747,20.0426825 18.9463169,19.0111035 L21.7315803,17.360577 L24.5168437,15.7100506 C26.4768439,14.4721557 26.4768439,11.7900502 24.6200016,10.6553133 Z" id="Path" fill-rule="nonzero"/></g></symbol><symbol id="atm" viewBox="0 0 32 32"><title>atm</title><g id="atm" stroke="none" stroke-width="1" fill-rule="evenodd"><path d="M23,10 L23,23.5 C23,24.1528467 22.5829319,24.7082819 22.000703,24.9143985 L22,25.5 C22,26.3284271 21.3284271,27 20.5,27 L11.5,27 C10.6715729,27 10,26.3284271 10,25.5 L10.0002925,24.9147505 C9.41754351,24.7089149 9,24.1532187 9,23.5 L9,10 L23,10 Z M21,25 L11,25 L11,25.5 C11,25.7454599 11.1768752,25.9496084 11.4101244,25.9919443 L11.5,26 L20.5,26 C20.7454599,26 20.9496084,25.8231248 20.9919443,25.5898756 L21,25.5 L21,25 Z M22,11 L10,11 L10,23.5 C10,23.7454599 10.1768752,23.9496084 10.4101244,23.9919443 L10.5,24 L21.5,24 C21.7454599,24 21.9496084,23.8231248 21.9919443,23.5898756 L22,23.5 L22,11 Z M16.4330781,13 C16.522529,13 16.61198,13.0849057 16.61198,13.1698113 L16.61198,14.0188679 C17.5363062,14.0754717 18.2817306,14.754717 18.3711816,15.6037736 C18.3711816,15.6886792 18.2817306,15.7735849 18.1922797,15.7735849 L17.2679534,15.7735849 C17.1785025,15.7735849 17.1188686,15.7169811 17.0890516,15.6603774 C17.0294176,15.4056604 16.7908818,15.1792453 16.4927121,15.1792453 L15.6876537,15.1792453 C15.2105821,15.1792453 14.7931444,15.490566 14.7335105,15.9433962 C14.6738765,16.4528302 15.0913142,16.8773585 15.6280198,16.8773585 L16.3436272,16.8773585 C17.5959402,16.8773585 18.6097174,17.8962264 18.4904495,19.1415094 C18.4009985,20.1037736 17.5959402,20.8113208 16.61198,20.9528302 L16.61198,21.8301887 C16.61198,21.9150943 16.522529,22 16.4330781,22 L15.5385688,22 C15.4491179,22 15.359667,21.9150943 15.359667,21.8301887 L15.359667,20.9811321 C14.4353407,20.9245283 13.6899163,20.245283 13.6004654,19.3962264 C13.6004654,19.3113208 13.6899163,19.2264151 13.7793673,19.2264151 L14.7036935,19.2264151 C14.7931444,19.2264151 14.8527784,19.2830189 14.8825954,19.3396226 C14.9422293,19.5943396 15.1807651,19.8207547 15.4789349,19.8207547 L16.2839932,19.8207547 C16.7610649,19.8207547 17.1785025,19.509434 17.2381365,19.0566038 C17.2977704,18.5471698 16.8803328,18.1226415 16.3436272,18.1226415 L15.7472877,18.1226415 C14.6142426,18.1226415 13.6004654,17.3301887 13.5110145,16.2830189 C13.3917466,15.1509434 14.2564389,14.1886792 15.359667,14.0471698 L15.359667,13.1698113 C15.359667,13.0849057 15.4491179,13 15.5385688,13 L16.4330781,13 Z M25,7 C26.6568542,7 28,8.34314575 28,10 C28,11.6568542 26.6568542,13 25,13 L24,13 L24,11 L25,11 C25.5522847,11 26,10.5522847 26,10 C26,9.48716416 25.6139598,9.06449284 25.1166211,9.00672773 L25,9 L7,9 C6.44771525,9 6,9.44771525 6,10 C6,10.5128358 6.38604019,10.9355072 6.88337887,10.9932723 L7,11 L8,11 L8,13 L7,13 C5.34314575,13 4,11.6568542 4,10 C4,8.34314575 5.34314575,7 7,7 L25,7 Z" id="Shape" fill-rule="nonzero"/></g></symbol><symbol id="contrast" viewBox="0 0 32 32"><title>contrast</title><g id="contrast" stroke="none" stroke-width="1" fill-rule="evenodd"><path d="M16,4 C22.627417,4 28,9.372583 28,16 C28,22.627417 22.627417,28 16,28 C9.372583,28 4,22.627417 4,16 C4,9.372583 9.372583,4 16,4 Z M17.0006955,7.05500569 L17.0006955,24.9449943 C21.5003111,24.4472338 25,20.632315 25,16 C25,11.367685 21.5003111,7.55276616 17.0006955,7.05500569 L17.0006955,7.05500569 Z" id="Combined-Shape"/></g></symbol><symbol id="debug" viewBox="0 0 32 32"><title>debug</title><g id="debug" stroke="none" stroke-width="1" fill-rule="evenodd"><path d="M18.0347979,4.52278837 C18.8026487,4.65818118 19.3303655,5.35529709 19.2698602,6.11701456 L19.2515372,6.26047227 L15.702886,26.3858734 C15.5590312,27.2017149 14.7810436,27.7464677 13.9652021,27.6026128 C13.1973513,27.46722 12.6696345,26.7701041 12.7301398,26.0083866 L12.7484628,25.8649289 L16.297114,5.73952773 C16.4409688,4.92368628 17.2189564,4.37893351 18.0347979,4.52278837 Z M10.5054018,9.72722723 C11.0280071,10.2498325 11.0587486,11.0780427 10.5976263,11.6366015 L10.5054018,11.7380309 L5.7431119,16.4997677 L10.5054018,21.2619691 C11.0280071,21.7845744 11.0587486,22.6127846 10.5976263,23.1713434 L10.5054018,23.2727728 C9.98279656,23.795378 9.15458632,23.8261195 8.59602753,23.3649972 L8.49459817,23.2727728 L2.72722723,17.5054018 C2.20462197,16.9827966 2.17388048,16.1545863 2.63500278,15.5960275 L2.72722723,15.4945982 L8.49459817,9.72722723 C9.04986627,9.17195914 9.95013373,9.17195914 10.5054018,9.72722723 Z M21.4945982,9.72722723 C22.0498663,9.17195914 22.9501337,9.17195914 23.5054018,9.72722723 L23.5054018,9.72722723 L29.2727728,15.4945982 L29.3649972,15.5960275 C29.8261195,16.1545863 29.795378,16.9827966 29.2727728,17.5054018 L29.2727728,17.5054018 L23.5054018,23.2727728 L23.4039725,23.3649972 C22.8454137,23.8261195 22.0172034,23.795378 21.4945982,23.2727728 L21.4945982,23.2727728 L21.4023737,23.1713434 C20.9412514,22.6127846 20.9719929,21.7845744 21.4945982,21.2619691 L21.4945982,21.2619691 L26.2570838,16.4999634 L21.4945982,11.7380309 L21.4023737,11.6366015 C20.9412514,11.0780427 20.9719929,10.2498325 21.4945982,9.72722723 Z" id="Combined-Shape" fill-rule="nonzero"/></g></symbol><symbol id="delete" viewBox="0 0 32 32"><title>delete</title><g id="delete" stroke="none" stroke-width="1" fill-rule="evenodd"><path d="M26,6 C27.1045695,6 28,6.8954305 28,8 L28,24 C28,25.1045695 27.1045695,26 26,26 L12.0399484,26 C11.3880785,26 10.7771108,25.6823125 10.4027155,25.1486811 L4.80407957,17.1688586 C4.32129177,16.4807337 4.32031035,15.5641624 4.80162343,14.8750052 L10.4029813,6.85482766 C10.7770994,6.31915512 11.3892874,6 12.0426704,6 L26,6 Z M26,8 L12.0426704,8 L6.44131252,16.0201775 L12.0399484,24 L26,24 L26,8 Z" id="Rectangle" fill-rule="nonzero"/><path d="M18,10 C18.5522847,10 19,10.4477153 19,11 L19,15 L23,15 C23.5522847,15 24,15.4477153 24,16 C24,16.5522847 23.5522847,17 23,17 L19,17 L19,21 C19,21.5522847 18.5522847,22 18,22 C17.4477153,22 17,21.5522847 17,21 L17,17 L13,17 C12.4477153,17 12,16.5522847 12,16 C12,15.4477153 12.4477153,15 13,15 L17,15 L17,11 C17,10.4477153 17.4477153,10 18,10 Z" id="Combined-Shape" transform="translate(18.000000, 16.000000) rotate(45.000000) translate(-18.000000, -16.000000) "/></g></symbol><symbol id="drag-handle" viewBox="0 0 32 32"><title>drag-handle</title><g id="drag-handle" stroke="none" stroke-width="1" fill-rule="evenodd"><g id="Group" transform="translate(11.000000, 6.000000)"><circle id="Oval" cx="2" cy="2" r="2"/><circle id="Oval-Copy" cx="2" cy="10" r="2"/><circle id="Oval" cx="9" cy="2" r="2"/><circle id="Oval-Copy-2" cx="9" cy="10" r="2"/><circle id="Oval-Copy-4" cx="2" cy="18" r="2"/><circle id="Oval-Copy-3" cx="9" cy="18" r="2"/></g></g></symbol><symbol id="exit" viewBox="0 0 32 32"><title>exit</title><g id="exit" stroke="none" stroke-width="1" fill-rule="evenodd"><g id="Group" transform="translate(5.000000, 6.000000)" fill-rule="nonzero"><polygon id="Path" points="22 10 13.999 2.001 13.999 6 5.999 6 5.999 14 13.999 14 13.999 18"/><path d="M4,20 L9,20 C9.552,20 10,19.552 10,19 C10,18.447 9.552,18 9,18 L4,18 C2.897,18 2,17.103 2,16 L2,4 C2,2.897 2.897,2 4,2 L9,2 C9.552,2 10,1.553 10,1 C10,0.447 9.552,0 9,0 L4,0 C1.8,0 0,1.8 0,4 L0,16 C0,18.2 1.8,20 4,20 Z" id="Path"/></g></g></symbol><symbol id="external" viewBox="0 0 32 32"><title>external</title><g id="external" stroke="none" stroke-width="1" fill-rule="evenodd"><path d="M27.6236882,3 L19.8515742,3 C19.095952,3 18.4752624,3.62068966 18.4752624,4.37631184 C18.4752624,5.13193403 19.095952,5.75262369 19.8515742,5.75262369 L24.2773613,5.75262369 L11.4047976,18.6521739 C10.8650675,19.191904 10.8650675,20.0554723 11.4047976,20.5952024 C11.6746627,20.8650675 12.0254873,21 12.3763118,21 C12.7271364,21 13.077961,20.8650675 13.3478261,20.5952024 L26.2473763,7.72263868 L26.2473763,12.1484258 C26.2473763,12.904048 26.868066,13.5247376 27.6236882,13.5247376 C28.3793103,13.5247376 29,12.904048 29,12.1484258 L29,4.37631184 C29,3.62068966 28.3793103,3 27.6236882,3 Z" id="Path" fill-rule="nonzero"/><path d="M24.6031746,15.1330891 C23.8510379,15.1330891 23.2332112,15.7509158 23.2332112,16.5030525 L23.2332112,22.009768 C23.2332112,23.7826618 21.7826618,25.2063492 20.03663,25.2063492 L9.96336996,25.2063492 C8.19047619,25.2063492 6.76678877,23.7557998 6.76678877,22.009768 L6.76678877,11.9365079 C6.76678877,10.1636142 8.21733822,8.73992674 9.96336996,8.73992674 L15.4700855,8.73992674 C16.2222222,8.73992674 16.8400488,8.12210012 16.8400488,7.36996337 C16.8400488,6.61782662 16.2222222,6 15.4700855,6 L9.96336996,6 C6.68620269,6 4,8.65934066 4,11.96337 L4,22.03663 C4,25.3137973 6.65934066,28 9.96336996,28 L20.03663,28 C23.3137973,28 26,25.3406593 26,22.03663 L26,16.5030525 C25.973138,15.7509158 25.3553114,15.1330891 24.6031746,15.1330891 Z" id="Path" fill-rule="nonzero"/></g></symbol><symbol id="fee" viewBox="0 0 32 32"><title>fee</title><g id="fee" stroke="none" stroke-width="1" fill-rule="evenodd"><path d="M20.806,3.99961184 L27,10.1916118 L27,28 L5,28 L5,4 L20.806,3.99961184 Z M19.5,5 L6,4.999 L6,27 L26,27 L26,11.5 L19.5,11.5 L19.5,5 Z M20.5,5.10661184 L20.5,10.5 L25.895,10.4996118 L20.5,5.10661184 Z" id="Shape" fill-rule="nonzero"/><circle id="Oval" cx="9.75" cy="8.75" r="1.25"/><circle id="Oval" cx="15.25" cy="14.25" r="1.25"/><rect id="Rectangle" x="8.5" y="18" width="15" height="1" rx="0.5"/><rect id="Rectangle-Copy" x="8.5" y="21" width="15" height="1" rx="0.5"/><rect id="Rectangle-Copy-2" x="8.5" y="24" width="15" height="1" rx="0.5"/><path d="M14.9696699,7.96966991 C15.2625631,7.6767767 15.7374369,7.6767767 16.0303301,7.96966991 C16.2965966,8.23593648 16.3208027,8.65260016 16.1029482,8.94621165 L16.0303301,9.03033009 L10.0303301,15.0303301 C9.73743687,15.3232233 9.26256313,15.3232233 8.96966991,15.0303301 C8.70340335,14.7640635 8.6791973,14.3473998 8.89705176,14.0537883 L8.96966991,13.9696699 L14.9696699,7.96966991 Z" id="Line-2" fill-rule="nonzero"/></g></symbol><symbol id="heart" viewBox="0 0 32 32"><title>heart</title><g id="heart" stroke="none" stroke-width="1" fill-rule="evenodd"><path d="M6.05385475,17.0158211 L14.7879864,25.7499613 C15.4573788,26.4193266 16.5426496,26.4193266 17.2120419,25.7499613 L25.946165,17.0158211 C27.1371792,15.8630815 27.8637063,14.3133138 27.9879418,12.6604711 C28.1012382,10.8078074 27.4119898,8.99595138 26.095986,7.68700791 C25.9511902,7.54210355 25.8008864,7.40508691 25.6450746,7.27595798 C23.2259726,5.38502082 19.7696085,5.62570877 17.635939,7.83368351 L16.7537771,8.71584544 C16.3374216,9.13200749 15.6625811,9.13200749 15.2462255,8.71584544 L14.3600869,7.8297325 C12.2267109,5.62092023 8.76897279,5.38195098 6.35202257,7.27628366 C6.19718214,7.40541258 6.04778398,7.54232638 5.90382809,7.68702505 C4.58786517,8.99598217 3.89868733,10.8078497 4.01207797,12.6604883 C4.13632067,14.3133241 4.86284695,15.863084 6.05385475,17.0158211 L6.05385475,17.0158211 Z" id="Path" fill-rule="nonzero"/></g></symbol><symbol id="help" viewBox="0 0 32 32"><title>help</title><g id="help" stroke="none" stroke-width="1" fill-rule="evenodd"><path d="M16,5 C18.2953094,5 20.4264205,5.70301659 22.1897567,6.9054732 C22.7386751,6.43867173 23.5450809,6.43224289 24.1021447,6.88544315 L24.2175144,6.98959236 L25.0104076,7.78248558 C25.5595824,8.33166036 25.5939058,9.20072277 25.1133779,9.78988351 L25.0945268,9.81024331 C26.2969834,11.5735795 27,13.7046906 27,16 C27,18.2953094 26.2969834,20.4264205 25.0945268,22.1897567 C25.5613283,22.7386751 25.5677571,23.5450809 25.1145569,24.1021447 L25.0104076,24.2175144 L24.2175144,25.0104076 C23.6683396,25.5595824 22.7992772,25.5939058 22.2101165,25.1133779 L22.1897567,25.0945268 C20.4264205,26.2969834 18.2953094,27 16,27 C13.7046906,27 11.5735795,26.2969834 9.81024331,25.0945268 C9.26132487,25.5613283 8.45491914,25.5677571 7.89785525,25.1145569 L7.78248558,25.0104076 L6.98959236,24.2175144 C6.44041757,23.6683396 6.40609415,22.7992772 6.88662209,22.2101165 L6.9054732,22.1897567 C5.70301659,20.4264205 5,18.2953094 5,16 C5,13.7046906 5.70301659,11.5735795 6.9054732,9.81024331 C6.43867173,9.26132487 6.43224289,8.45491914 6.88544315,7.89785525 L6.98959236,7.78248558 L7.78248558,6.98959236 C8.33166036,6.44041757 9.20072277,6.40609415 9.78988351,6.88662209 L9.81024331,6.9054732 C11.5735795,5.70301659 13.7046906,5 16,5 Z M12.1966991,19.0104076 C12.0231328,18.8368413 11.7537084,18.8175561 11.5588402,18.9525522 L11.4895924,19.0104076 L7.69669914,22.8033009 C7.52313279,22.9768672 7.50384764,23.2462916 7.63884369,23.4411598 L7.69669914,23.5104076 L8.48959236,24.3033009 C8.66315871,24.4768672 8.93258311,24.4961524 9.12745125,24.3611563 L9.19669914,24.3033009 L12.9895924,20.5104076 C13.1631587,20.3368413 13.1824439,20.0674169 13.0474478,19.8725487 L12.9895924,19.8033009 L12.1966991,19.0104076 Z M20.5104076,19.0104076 C20.3368413,18.8368413 20.0674169,18.8175561 19.8725487,18.9525522 L19.8033009,19.0104076 L19.0104076,19.8033009 C18.8368413,19.9768672 18.8175561,20.2462916 18.9525522,20.4411598 L19.0104076,20.5104076 L22.8033009,24.3033009 C22.9768672,24.4768672 23.2462916,24.4961524 23.4411598,24.3611563 L23.5104076,24.3033009 L24.3033009,23.5104076 C24.4768672,23.3368413 24.4961524,23.0674169 24.3611563,22.8725487 L24.3033009,22.8033009 L20.5104076,19.0104076 Z M16,11 C15.3136812,11 14.6596594,11.1382794 14.064275,11.3884976 C14.2147781,11.8580993 14.1268299,12.3872282 13.8014388,12.7877092 L13.6966991,12.9038059 L12.9038059,13.6966991 C12.4936493,14.1068558 11.9050594,14.2298285 11.3879075,14.0656172 C11.1382794,14.6596594 11,15.3136812 11,16 C11,16.6863188 11.1382794,17.3403406 11.3884976,17.935725 C11.8580993,17.7852219 12.3872282,17.8731701 12.7877092,18.1985612 L12.9038059,18.3033009 L13.6966991,19.0961941 C14.1068558,19.5063507 14.2298285,20.0949406 14.0656172,20.6120925 C14.6596594,20.8617206 15.3136812,21 16,21 C16.6863188,21 17.3403406,20.8617206 17.935725,20.6115024 C17.7852219,20.1419007 17.8731701,19.6127718 18.1985612,19.2122908 L18.3033009,19.0961941 L19.0961941,18.3033009 C19.5063507,17.8931442 20.0949406,17.7701715 20.6120925,17.9343828 C20.8617206,17.3403406 21,16.6863188 21,16 C21,15.3136812 20.8617206,14.6596594 20.6115024,14.064275 C20.1419007,14.2147781 19.6127718,14.1268299 19.2122908,13.8014388 L19.0961941,13.6966991 L18.3033009,12.9038059 C17.8931442,12.4936493 17.7701715,11.9050594 17.9343828,11.3879075 C17.3403406,11.1382794 16.6863188,11 16,11 Z M23.5104076,7.69669914 C23.3368413,7.52313279 23.0674169,7.50384764 22.8725487,7.63884369 L22.8033009,7.69669914 L19.0104076,11.4895924 C18.8368413,11.6631587 18.8175561,11.9325831 18.9525522,12.1274513 L19.0104076,12.1966991 L19.8033009,12.9895924 C19.9768672,13.1631587 20.2462916,13.1824439 20.4411598,13.0474478 L20.5104076,12.9895924 L24.3033009,9.19669914 C24.4768672,9.02313279 24.4961524,8.75370839 24.3611563,8.55884025 L24.3033009,8.48959236 L23.5104076,7.69669914 Z M9.19669914,7.69669914 C9.02313279,7.52313279 8.75370839,7.50384764 8.55884025,7.63884369 L8.48959236,7.69669914 L7.69669914,8.48959236 C7.52313279,8.66315871 7.50384764,8.93258311 7.63884369,9.12745125 L7.69669914,9.19669914 L11.4895924,12.9895924 C11.6631587,13.1631587 11.9325831,13.1824439 12.1274513,13.0474478 L12.1966991,12.9895924 L12.9895924,12.1966991 C13.1631587,12.0231328 13.1824439,11.7537084 13.0474478,11.5588402 L12.9895924,11.4895924 L9.19669914,7.69669914 Z" id="Shape"/></g></symbol><symbol id="info" viewBox="0 0 32 32"><title>info</title><g id="info" stroke="none" stroke-width="1" fill-rule="evenodd"><path d="M16,4 C19.1825979,4 22.2348448,5.26428208 24.4852814,7.51471863 C26.7357179,9.76515517 28,12.8174021 28,16 C28,22.627417 22.627417,28 16,28 C9.372583,28 4,22.627417 4,16 C4,9.372583 9.372583,4 16,4 Z M16,6 C10.4771525,6 6,10.4771525 6,16 C6,21.5228475 10.4771525,26 16,26 C21.5228475,26 26,21.5228475 26,16 C26,13.3478351 24.9464316,10.804296 23.0710678,8.92893219 C21.195704,7.0535684 18.6521649,6 16,6 Z M17,14 L17,21 L18,21 L18,23 L14,23 L14,21 L15,21 L15,16 L14,16 L14,14 L17,14 Z M16,9 C16.8284271,9 17.5,9.67157288 17.5,10.5 C17.5,11.3284271 16.8284271,12 16,12 C15.1715729,12 14.5,11.3284271 14.5,10.5 C14.5,9.67157288 15.1715729,9 16,9 Z" id="Combined-Shape" fill-rule="nonzero"/></g></symbol><symbol id="interest" viewBox="0 0 32 32"><title>interest</title><g id="interest" stroke="none" stroke-width="1" fill-rule="evenodd"><path d="M10.8013318,16.0744325 C11.9143522,16.0744325 12.8057896,15.7761746 13.4756441,15.1796586 C14.1454986,14.5831427 14.5100383,13.7781102 14.5692632,12.764561 C14.601939,12.3253563 14.6182769,11.9368291 14.6182769,11.5989794 C14.6182769,11.2611297 14.601939,10.85571 14.5692632,10.3827204 C14.5100383,9.35861341 14.1618365,8.53879993 13.5246578,7.92327996 C12.8874792,7.30775999 11.9797039,7 10.8013318,7 C9.63317102,7 8.72794848,7.30775999 8.08566425,7.92327996 C7.44338002,8.53879993 7.09262543,9.35861341 7.03340049,10.3827204 C7.01706258,10.85571 7.00634082,11.2611297 7.00123523,11.5989794 C6.99612963,11.9368291 7.00685138,12.3253563 7.03340049,12.764561 C7.10283663,13.7781102 7.46992913,14.5831427 8.13467799,15.1796586 C8.79942686,15.7761746 9.68831147,16.0744325 10.8013318,16.0744325 Z M10.5960868,24.8638043 C10.8248176,24.8638043 10.9958551,24.8215731 11.1091994,24.7371107 C11.2225437,24.6526482 11.3363985,24.5344008 11.4507639,24.3823685 L11.4507639,24.3823685 L23.5479679,7.91219426 C23.6133196,7.82773183 23.6459954,7.73482316 23.6459954,7.63346824 C23.6459954,7.29561851 23.4621939,7.12669365 23.0945908,7.12669365 L23.0945908,7.12669365 L21.3454129,7.12669365 C21.1228088,7.12669365 20.953303,7.16892486 20.8368954,7.2533873 C20.7204877,7.33784973 20.6051012,7.45609713 20.4907358,7.60812951 L20.4907358,7.60812951 L8.39353181,24.0783037 C8.32818016,24.1627661 8.29550433,24.2556748 8.29550433,24.3570297 C8.29550433,24.6948795 8.47930586,24.8638043 8.84690892,24.8638043 L8.84690892,24.8638043 L10.5960868,24.8638043 Z M10.8013318,13.8794651 C10.5358407,13.8794651 10.3214056,13.8187577 10.1580265,13.697343 C9.99464736,13.5759282 9.8772186,13.418089 9.80574023,13.2238254 C9.73426186,13.0295619 9.68729035,12.8300194 9.66482572,12.625198 C9.64848781,12.2366708 9.64031885,11.8803449 9.64031885,11.5562203 C9.64031885,11.2320957 9.64848781,10.8873834 9.66482572,10.5220834 C9.68729035,10.1947915 9.78174392,9.90234031 9.94818641,9.6447299 C10.1146289,9.38711948 10.3990107,9.25831427 10.8013318,9.25831427 C11.203653,9.25831427 11.4895665,9.38711948 11.6590723,9.6447299 C11.8285782,9.90234031 11.9215001,10.1947915 11.937838,10.5220834 C11.9705138,10.8873834 11.9868517,11.2320957 11.9868517,11.5562203 C11.9868517,11.8803449 11.9705138,12.2366708 11.937838,12.625198 C11.9317113,12.8300194 11.8888242,13.0295619 11.8091769,13.2238254 C11.7295296,13.418089 11.6105691,13.5759282 11.4522956,13.697343 C11.2940221,13.8187577 11.0770341,13.8794651 10.8013318,13.8794651 Z M21.1830549,25 C22.2960753,25 23.1875127,24.6938237 23.8573672,24.0814711 C24.5272216,23.4691184 24.8917613,22.6561675 24.9509863,21.6426183 C24.9836621,21.2034137 25,20.8148865 25,20.4770368 C25,20.139187 24.9836621,19.7337674 24.9509863,19.2607778 C24.8917613,18.2366708 24.5435595,17.4168573 23.9063809,16.8013373 C23.2692023,16.1858173 22.3614269,15.8780574 21.1830549,15.8780574 C20.0148941,15.8780574 19.1096715,16.1858173 18.4673873,16.8013373 C17.8251031,17.4168573 17.4743485,18.2366708 17.4151235,19.2607778 C17.3987856,19.7337674 17.3880639,20.139187 17.3829583,20.4770368 C17.3778527,20.8148865 17.3885744,21.2034137 17.4151235,21.6426183 C17.4845597,22.6561675 17.8516522,23.4691184 18.516401,24.0814711 C19.1811499,24.6938237 20.0700345,25 21.1830549,25 Z M21.1830549,22.7575224 C20.9175638,22.7575224 20.7031287,22.6968151 20.5397496,22.5754003 C20.3763704,22.4539856 20.2589417,22.2961464 20.1874633,22.1018828 C20.1159849,21.9076192 20.0690134,21.7080767 20.0465488,21.5032553 C20.0302109,21.1147281 20.0220419,20.7584023 20.0220419,20.4342777 C20.0220419,20.1101531 20.0302109,19.7654408 20.0465488,19.4001408 C20.0690134,19.0728488 20.163467,18.7803977 20.3299095,18.5227873 C20.496352,18.2651768 20.7807338,18.1363716 21.1830549,18.1363716 C21.585376,18.1363716 21.8712895,18.2651768 22.0407954,18.5227873 C22.2103012,18.7803977 22.3032231,19.0728488 22.319561,19.4001408 C22.3522369,19.7654408 22.3685748,20.1101531 22.3685748,20.4342777 C22.3685748,20.7584023 22.3522369,21.1147281 22.319561,21.5032553 C22.3134343,21.7080767 22.2705473,21.9076192 22.1909,22.1018828 C22.1112526,22.2961464 21.9922922,22.4539856 21.8340187,22.5754003 C21.6757451,22.6968151 21.4587572,22.7575224 21.1830549,22.7575224 Z" id="%" fill-rule="nonzero"/></g></symbol><symbol id="klarna" viewBox="0 0 32 32"><title>klarna</title><g id="klarna" stroke="none" stroke-width="1" fill-rule="evenodd"><path d="M8,26 L13,26 L13,6 L8,6 L8,26 Z M23.4247788,6 C23.4247788,10.3296832 21.8127853,14.3573573 18.9403819,17.3511176 L25,26 L19.5854681,26 L13,16.6005638 L14.6996041,15.2682644 C17.5181882,13.0582978 19.1348626,9.68029839 19.1348626,6 L23.424802,6 L23.4247788,6 Z" id="Shape" fill-rule="nonzero"/></g></symbol><symbol id="menu" viewBox="0 0 32 32"><title>menu</title><g id="menu" stroke="none" stroke-width="1" fill-rule="evenodd"><path d="M26,22 C26.5522847,22 27,22.4477153 27,23 L27,24 C27,24.5522847 26.5522847,25 26,25 L6,25 C5.44771525,25 5,24.5522847 5,24 L5,23 C5,22.4477153 5.44771525,22 6,22 L26,22 Z M26,14.5 C26.5522847,14.5 27,14.9477153 27,15.5 L27,16.5 C27,17.0522847 26.5522847,17.5 26,17.5 L6,17.5 C5.44771525,17.5 5,17.0522847 5,16.5 L5,15.5 C5,14.9477153 5.44771525,14.5 6,14.5 L26,14.5 Z M26,7 C26.5522847,7 27,7.44771525 27,8 L27,9 C27,9.55228475 26.5522847,10 26,10 L6,10 C5.44771525,10 5,9.55228475 5,9 L5,8 C5,7.44771525 5.44771525,7 6,7 L26,7 Z" id="Combined-Shape"/></g></symbol><symbol id="padlock" viewBox="0 0 32 32"><title>padlock</title><g id="padlock" stroke="none" stroke-width="1" fill-rule="evenodd"><path d="M15.5238095,20.8139561 L15.5238095,20.8139561 C14.9685714,20.6308382 14.5714286,20.1365977 14.5714286,19.5561317 C14.5714286,18.8201044 15.2114286,18.222749 16,18.222749 C16.7885714,18.222749 17.4285714,18.8201044 17.4285714,19.5561317 C17.4285714,20.1365977 17.0314286,20.6308382 16.4761905,20.8139561 L16.4761905,23.1198193 C16.4761905,23.3536057 16.2628571,23.5562799 16,23.5562799 C15.7447619,23.5562799 15.5238095,23.3607171 15.5238095,23.1198193 L15.5238095,20.8139561 Z M8.85714286,13.7781399 L8.85714286,13.7781399 L8.85714286,13.7781399 C7.27809524,13.7825845 6,14.9692952 6,16.4529057 L6,25.3252343 C6,26.8026223 7.28190476,28 8.86571429,28 L23.1342857,28 C24.7171429,28 26,26.8115115 26,25.3252343 L26,16.4529057 C26,14.9781844 24.7228571,13.7816956 23.1428571,13.7781399 L23.1428571,10.6660247 C23.1428571,6.98411052 19.9371429,4 16,4 C12.0552381,4 8.85714286,6.98411052 8.85714286,10.6660247 L8.85714286,13.7781399 Z M11.7142857,13.7781399 L11.7142857,10.6678025 C11.7142857,8.45260936 13.6333333,6.66676544 16,6.66676544 C18.3619048,6.66676544 20.2857143,8.45794289 20.2857143,10.6678025 L20.2857143,13.7781399 L11.7142857,13.7781399 Z" id="Shape" fill-rule="nonzero"/></g></symbol><symbol id="prefs" viewBox="0 0 32 32"><title>prefs</title><g id="prefs" stroke="none" stroke-width="1" fill-rule="evenodd"><path d="M16,21 C16.5522847,21 17,21.4477153 17,22 L17,25 C17,25.5522847 16.5522847,26 16,26 L13,26 C12.4477153,26 12,25.5522847 12,25 L12,22 C12,21.4477153 12.4477153,21 13,21 L16,21 Z M11,22 L11,25 L6,25 C5.44771525,25 5,24.5522847 5,24 L5,23 C5,22.4477153 5.44771525,22 6,22 L11,22 L11,22 Z M26,22 C26.5522847,22 27,22.4477153 27,23 L27,24 C27,24.5522847 26.5522847,25 26,25 L18,25 L18,25 L18,22 L26,22 Z M21,13.5 C21.5522847,13.5 22,13.9477153 22,14.5 L22,17.5 C22,18.0522847 21.5522847,18.5 21,18.5 L18,18.5 C17.4477153,18.5 17,18.0522847 17,17.5 L17,14.5 C17,13.9477153 17.4477153,13.5 18,13.5 L21,13.5 Z M16,14.5 L16,17.5 L6,17.5 C5.44771525,17.5 5,17.0522847 5,16.5 L5,15.5 C5,14.9477153 5.44771525,14.5 6,14.5 L16,14.5 L16,14.5 Z M26,14.5 C26.5522847,14.5 27,14.9477153 27,15.5 L27,16.5 C27,17.0522847 26.5522847,17.5 26,17.5 L23,17.5 L23,17.5 L23,14.5 L26,14.5 Z M13,6 C13.5522847,6 14,6.44771525 14,7 L14,10 C14,10.5522847 13.5522847,11 13,11 L10,11 C9.44771525,11 9,10.5522847 9,10 L9,7 C9,6.44771525 9.44771525,6 10,6 L13,6 Z M8,7 L8,10 L6,10 C5.44771525,10 5,9.55228475 5,9 L5,8 C5,7.44771525 5.44771525,7 6,7 L8,7 L8,7 Z M26,7 C26.5522847,7 27,7.44771525 27,8 L27,9 C27,9.55228475 26.5522847,10 26,10 L15,10 L15,10 L15,7 L26,7 Z" id="Combined-Shape"/></g></symbol><symbol id="refresh" viewBox="0 0 32 32"><title>refresh</title><g id="refresh" stroke="none" stroke-width="1" fill-rule="evenodd"><path d="M18.6078391,4.40878309 C24.1387236,5.73363431 28,10.2991997 28,16.0615637 C28,19.1101991 26.7933511,22.0603324 24.6854094,24.2815514 L26.6997743,26.2959163 C27.3301867,26.9263288 26.8820029,28 26.0004104,28 L18.9969218,28 C18.450236,28 17.997127,27.546891 17.997127,27.0002052 L17.997127,20.0016417 C17.997127,19.1151242 19.0757234,18.6669403 19.7012108,19.2973528 L21.8436282,21.4397702 C23.2177304,19.967166 24.0008208,18.0168274 24.0008208,16.0024625 C24.0008208,12.0229838 21.7303509,9.79683973 18.3566591,8.35871127 C18.1399549,8.2848348 17.997127,8.12723168 17.997127,7.89082701 L17.997127,4.89144264 C17.997127,4.5811615 18.3615842,4.37430741 18.6078391,4.40878309 Z M12.9981531,4 C13.5448389,4 13.9979479,4.45310897 13.9979479,4.99979479 L13.9979479,11.9983583 C13.9979479,12.8848758 12.9242766,13.3330597 12.2987892,12.7026472 L10.1415966,10.5454545 C8.76749436,12.0279089 7.99917915,13.9831726 7.99917915,15.9975375 C7.99917915,19.9770162 10.264724,22.2031603 13.6384158,23.6412887 C13.8600451,23.7200903 13.9979479,23.8727683 13.9979479,24.109173 L13.9979479,27.2169095 C13.9979479,27.5862918 13.6876667,27.7882208 13.3921609,27.7192694 C7.84157603,26.3747178 4,21.7648266 4,15.9975375 C4,12.9341268 5.21649908,9.95444285 7.3145906,7.73322389 L5.29530064,5.70408373 C4.66981326,5.07367125 5.11307203,4 5.99958958,4 L12.9981531,4 Z" id="Combined-Shape" transform="translate(16.000000, 16.000000) rotate(90.000000) translate(-16.000000, -16.000000) "/></g></symbol><symbol id="submit" viewBox="0 0 32 32"><title>submit</title><g id="submit" stroke="none" stroke-width="1" fill-rule="evenodd"><path d="M18.477348,6.13437697 L27.8586154,15.352248 C27.9604423,15.44801 28.0061121,15.5759047 27.9993462,15.7022087 C28.0061121,15.8281945 27.9604423,15.9564074 27.8586154,16.0521694 L18.477348,25.8654242 C18.2865494,26.0448586 17.9746412,26.0448586 17.7838426,25.8654242 L15.8041384,24.0036335 C15.6133399,23.8241991 15.6133399,23.5308685 15.8041384,23.3514341 L20.9942651,17.4796907 L4.49052821,17.4796907 C4.22090684,17.4796907 4,17.2722595 4,17.0183789 L4,14.3857203 C4,14.1321579 4.22056855,13.9244085 4.49052821,13.9244085 L20.9942651,13.9244085 L15.8041384,8.64804896 C15.6133399,8.46861458 15.6133399,8.17528392 15.8041384,7.99584954 L17.7838426,6.13405882 C17.9746412,5.95526074 18.2865494,5.95526074 18.477348,6.13437697 Z" id="Path" fill-rule="nonzero"/></g></symbol><symbol id="transfer-in" viewBox="0 0 32 32"><title>transfer-in</title><g id="transfer-in" stroke="none" stroke-width="1" fill-rule="evenodd"><path d="M9.20421053,11.8947368 C9.80571429,11.437594 10.6592768,11.828285 10.7392045,12.5430515 L10.7452632,12.6526316 L10.7452632,13.8147368 L13.3506059,13.8141926 C13.1231624,14.5024683 13,15.2373645 13,16 C13,16.9620405 13.1959886,17.8799395 13.550064,18.7157951 L10.7452632,18.7157895 L10.7452632,19.8526316 C10.7452632,20.5984962 9.92034372,21.0464733 9.29619832,20.6728045 L9.20421053,20.6105263 L4.37894737,17.0231579 C3.90736842,16.6694737 3.87592982,15.9636772 4.28463158,15.5630447 L4.37894737,15.4821053 L9.20421053,11.8947368 Z" id="Path" fill-rule="nonzero"/><path d="M21,9 C24.854251,9 28,12.145749 28,16 C28,19.854251 24.854251,23 21,23 C17.145749,23 14,19.854251 14,16 C14,12.145749 17.145749,9 21,9 Z M21.4330781,11.5 L20.5385688,11.5 C20.4670081,11.5 20.3954474,11.5543396 20.3696855,11.6195472 L20.359667,11.6698113 L20.359667,12.5471698 C19.2564389,12.6886792 18.3917466,13.6509434 18.5110145,14.7830189 C18.5962058,15.7803235 19.5197883,16.5465922 20.5863224,16.6173087 L20.7472877,16.6226415 L21.3436272,16.6226415 C21.8803328,16.6226415 22.2977704,17.0471698 22.2381365,17.5566038 C22.183472,17.9716981 21.828153,18.2678852 21.4018462,18.3143671 L21.2839932,18.3207547 L20.4789349,18.3207547 C20.1807651,18.3207547 19.9422293,18.0943396 19.8825954,17.8396226 C19.8602326,17.7971698 19.8210979,17.754717 19.765191,17.7361439 L19.7036935,17.7264151 L18.7793673,17.7264151 C18.6899163,17.7264151 18.6004654,17.8113208 18.6004654,17.8962264 C18.6846545,18.6953385 19.3499135,19.3440295 20.1985048,19.4647719 L20.359667,19.4811321 L20.359667,20.3301887 C20.359667,20.3981132 20.4169156,20.4660377 20.4856139,20.4904906 L20.5385688,20.5 L21.4330781,20.5 C21.5046389,20.5 21.5761996,20.4456604 21.6019615,20.3804528 L21.61198,20.3301887 L21.61198,19.4528302 C22.5959402,19.3113208 23.4009985,18.6037736 23.4904495,17.6415094 C23.6047479,16.4481132 22.6784545,15.4626572 21.4988592,15.3826078 L21.3436272,15.3773585 L20.6280198,15.3773585 C20.0913142,15.3773585 19.6738765,14.9528302 19.7335105,14.4433962 C19.7881749,14.0283019 20.1434939,13.7321148 20.5698007,13.6856329 L20.6876537,13.6792453 L21.4927121,13.6792453 C21.7908818,13.6792453 22.0294176,13.9056604 22.0890516,14.1603774 C22.1114143,14.2028302 22.1505491,14.245283 22.2064559,14.2638561 L22.2679534,14.2735849 L23.1922797,14.2735849 C23.2817306,14.2735849 23.3711816,14.1886792 23.3711816,14.1037736 C23.2869924,13.3046615 22.6217334,12.6559705 21.7731422,12.5352281 L21.61198,12.5188679 L21.61198,11.6698113 C21.61198,11.6018868 21.5547314,11.5339623 21.4860331,11.5095094 L21.4330781,11.5 Z" id="Shape" fill-rule="nonzero"/></g></symbol><symbol id="transfer-out" viewBox="0 0 32 32"><title>transfer-out</title><g id="transfer-out" stroke="none" stroke-width="1" fill-rule="evenodd"><path d="M23.6542105,11.8947368 C24.2557143,11.437594 25.1092768,11.828285 25.1892045,12.5430515 L25.1952632,12.6526316 L25.1952632,13.8147368 L27.8006059,13.8141926 C27.5731624,14.5024683 27.45,15.2373645 27.45,16 C27.45,16.9620405 27.6459886,17.8799395 28.000064,18.7157951 L25.1952632,18.7157895 L25.1952632,19.8526316 C25.1952632,20.5984962 24.3703437,21.0464733 23.7461983,20.6728045 L23.6542105,20.6105263 L18.8289474,17.0231579 C18.3573684,16.6694737 18.3259298,15.9636772 18.7346316,15.5630447 L18.8289474,15.4821053 L23.6542105,11.8947368 Z" id="Path" fill-rule="nonzero" transform="translate(23.225032, 16.252632) scale(-1, 1) translate(-23.225032, -16.252632) "/><path d="M11,9 C14.854251,9 18,12.145749 18,16 C18,19.854251 14.854251,23 11,23 C7.14574899,23 4,19.854251 4,16 C4,12.145749 7.14574899,9 11,9 Z M11.4330781,11.5 L10.5385688,11.5 C10.4670081,11.5 10.3954474,11.5543396 10.3696855,11.6195472 L10.359667,11.6698113 L10.359667,12.5471698 C9.25643887,12.6886792 8.39174656,13.6509434 8.51101447,14.7830189 C8.59620583,15.7803235 9.51978835,16.5465922 10.5863224,16.6173087 L10.7472877,16.6226415 L11.3436272,16.6226415 C11.8803328,16.6226415 12.2977704,17.0471698 12.2381365,17.5566038 C12.183472,17.9716981 11.828153,18.2678852 11.4018462,18.3143671 L11.2839932,18.3207547 L10.4789349,18.3207547 C10.1807651,18.3207547 9.94222932,18.0943396 9.88259536,17.8396226 C9.86023263,17.7971698 9.82109785,17.754717 9.76519102,17.7361439 L9.70369351,17.7264151 L8.77936725,17.7264151 C8.68991632,17.7264151 8.6004654,17.8113208 8.6004654,17.8962264 C8.68465451,18.6953385 9.34991354,19.3440295 10.1985048,19.4647719 L10.359667,19.4811321 L10.359667,20.3301887 C10.359667,20.3981132 10.4169156,20.4660377 10.4856139,20.4904906 L10.5385688,20.5 L11.4330781,20.5 C11.5046389,20.5 11.5761996,20.4456604 11.6019615,20.3804528 L11.61198,20.3301887 L11.61198,19.4528302 C12.5959402,19.3113208 13.4009985,18.6037736 13.4904495,17.6415094 C13.6047479,16.4481132 12.6784545,15.4626572 11.4988592,15.3826078 L11.3436272,15.3773585 L10.6280198,15.3773585 C10.0913142,15.3773585 9.67387653,14.9528302 9.73351048,14.4433962 C9.78817494,14.0283019 10.1434939,13.7321148 10.5698007,13.6856329 L10.6876537,13.6792453 L11.4927121,13.6792453 C11.7908818,13.6792453 12.0294176,13.9056604 12.0890516,14.1603774 C12.1114143,14.2028302 12.1505491,14.245283 12.2064559,14.2638561 L12.2679534,14.2735849 L13.1922797,14.2735849 C13.2817306,14.2735849 13.3711816,14.1886792 13.3711816,14.1037736 C13.2869924,13.3046615 12.6217334,12.6559705 11.7731422,12.5352281 L11.61198,12.5188679 L11.61198,11.6698113 C11.61198,11.6018868 11.5547314,11.5339623 11.4860331,11.5095094 L11.4330781,11.5 Z" id="Shape" fill-rule="nonzero"/></g></symbol><symbol id="transfer" viewBox="0 0 32 32"><title>transfer</title><g id="transfer" stroke="none" stroke-width="1" fill-rule="evenodd"><path d="M19.8159131,15.1157774 L25.7759551,20.9419914 C25.8603575,21.0244986 25.8982124,21.134691 25.8926043,21.2435127 C25.8982124,21.3520604 25.8603575,21.4625269 25.7759551,21.5450341 L19.8159131,27.3712481 C19.6577638,27.5258463 19.3992289,27.5258463 19.2410796,27.3712481 L17.6001402,25.7671548 C17.4419909,25.6125566 17.4419909,25.3598269 17.6001402,25.2052287 L20.086225,22.7749669 L6.40658955,22.7749669 C6.1831055,22.7749669 6,22.596247 6,22.377507 L6,20.1092444 C6,19.8907785 6.1828251,19.7117845 6.40658955,19.7117845 L20.086225,19.7117845 L17.6001402,17.2815227 C17.4419909,17.1269245 17.4419909,16.8741948 17.6001402,16.7195966 L19.2410796,15.1155032 C19.3992289,14.9614533 19.6577638,14.9614533 19.8159131,15.1157774 Z" id="Path" fill-rule="nonzero"/><path d="M12.0772331,17.3714194 L6.11719104,11.5452054 C6.03278865,11.4626982 5.99493377,11.3525058 6.0005419,11.243684 C5.99493377,11.1351364 6.03278865,11.0246699 6.11719104,10.9421627 L12.0772331,5.11594865 C12.2353824,4.96135045 12.4939173,4.96135045 12.6520666,5.11594865 L14.293006,6.72004203 C14.4511553,6.87464023 14.4511553,7.12736991 14.293006,7.28196811 L11.8069211,9.71222989 L25.4865566,9.71222989 C25.7100407,9.71222989 25.8931462,9.89094979 25.8931462,10.1096898 L25.8931462,12.3779524 C25.8931462,12.5964183 25.7103211,12.7754123 25.4865566,12.7754123 L11.8069211,12.7754123 L14.293006,15.2056741 C14.4511553,15.3602723 14.4511553,15.613002 14.293006,15.7676002 L12.6520666,17.3716935 C12.4939173,17.5257435 12.2353824,17.5257435 12.0772331,17.3714194 Z" id="Path" fill-rule="nonzero"/></g></symbol></svg>