<?xml version="1.0" encoding="UTF-8"?><svg viewBox="0 0 32 32" version="1.1" xmlns="http://www.w3.org/2000/svg" xmlns:xlink="http://www.w3.org/1999/xlink"><title>afterpay</title><g id="afterpay" stroke="none" stroke-width="1" fill-rule="evenodd"><path d="M24.6200016,10.6553133 L21.8347382,9.00478681 L19.0494748,7.35426035 C17.1926326,6.32268131 14.8200008,7.66373406 14.8200008,9.83005004 L14.8200008,10.2426817 C14.8200008,10.4489975 14.9231587,10.6553133 15.1294745,10.7584712 L16.4705272,11.4805765 C16.8831588,11.6868923 17.2957905,11.3774186 17.2957905,10.964787 L17.2957905,10.1395237 C17.2957905,9.72689213 17.7084221,9.41741842 18.1210537,9.62373423 L20.7000013,11.0679449 L23.175791,12.6153134 C23.5884226,12.8216292 23.5884226,13.3374188 23.175791,13.5437346 L20.5968434,14.9879452 L18.0178958,16.6384717 C17.6052642,16.8447875 17.1926326,16.5353138 17.1926326,16.1226822 L17.1926326,15.7100506 C17.1926326,13.5437346 14.8200008,12.2026818 12.9631585,13.2342609 L10.1778951,14.8847873 L7.3926317,16.5353138 C5.53578943,17.5668928 5.53578943,20.3521562 7.3926317,21.3837353 L10.1778951,23.0342617 L12.9631585,24.6847882 C14.8200008,25.7163672 17.1926326,24.3753145 17.1926326,22.2089985 L17.1926326,21.7963669 C17.1926326,21.5900511 17.0894747,21.3837353 16.8831588,21.2805774 L15.5421061,20.558472 C15.1294745,20.3521562 14.7168429,20.6616299 14.7168429,21.0742615 L14.7168429,21.8995248 C14.7168429,22.3121564 14.3042113,22.6216301 13.8915796,22.4153143 L11.312632,20.9711036 L8.73368445,19.4237351 C8.32105283,19.2174193 8.32105283,18.7016298 8.73368445,18.495314 L11.312632,17.0511033 L13.8915796,15.6068926 C14.3042113,15.4005768 14.7168429,15.7100506 14.7168429,16.1226822 L14.7168429,16.5353138 C14.7168429,18.7016298 17.0894747,20.0426825 18.9463169,19.0111035 L21.7315803,17.360577 L24.5168437,15.7100506 C26.4768439,14.4721557 26.4768439,11.7900502 24.6200016,10.6553133 Z" id="Path" fill-rule="nonzero"/></g></svg>