<?xml version="1.0" encoding="UTF-8"?><svg viewBox="0 0 32 32" version="1.1" xmlns="http://www.w3.org/2000/svg" xmlns:xlink="http://www.w3.org/1999/xlink"><title>atm</title><g id="atm" stroke="none" stroke-width="1" fill-rule="evenodd"><path d="M23,10 L23,23.5 C23,24.1528467 22.5829319,24.7082819 22.000703,24.9143985 L22,25.5 C22,26.3284271 21.3284271,27 20.5,27 L11.5,27 C10.6715729,27 10,26.3284271 10,25.5 L10.0002925,24.9147505 C9.41754351,24.7089149 9,24.1532187 9,23.5 L9,10 L23,10 Z M21,25 L11,25 L11,25.5 C11,25.7454599 11.1768752,25.9496084 11.4101244,25.9919443 L11.5,26 L20.5,26 C20.7454599,26 20.9496084,25.8231248 20.9919443,25.5898756 L21,25.5 L21,25 Z M22,11 L10,11 L10,23.5 C10,23.7454599 10.1768752,23.9496084 10.4101244,23.9919443 L10.5,24 L21.5,24 C21.7454599,24 21.9496084,23.8231248 21.9919443,23.5898756 L22,23.5 L22,11 Z M16.4330781,13 C16.522529,13 16.61198,13.0849057 16.61198,13.1698113 L16.61198,14.0188679 C17.5363062,14.0754717 18.2817306,14.754717 18.3711816,15.6037736 C18.3711816,15.6886792 18.2817306,15.7735849 18.1922797,15.7735849 L17.2679534,15.7735849 C17.1785025,15.7735849 17.1188686,15.7169811 17.0890516,15.6603774 C17.0294176,15.4056604 16.7908818,15.1792453 16.4927121,15.1792453 L15.6876537,15.1792453 C15.2105821,15.1792453 14.7931444,15.490566 14.7335105,15.9433962 C14.6738765,16.4528302 15.0913142,16.8773585 15.6280198,16.8773585 L16.3436272,16.8773585 C17.5959402,16.8773585 18.6097174,17.8962264 18.4904495,19.1415094 C18.4009985,20.1037736 17.5959402,20.8113208 16.61198,20.9528302 L16.61198,21.8301887 C16.61198,21.9150943 16.522529,22 16.4330781,22 L15.5385688,22 C15.4491179,22 15.359667,21.9150943 15.359667,21.8301887 L15.359667,20.9811321 C14.4353407,20.9245283 13.6899163,20.245283 13.6004654,19.3962264 C13.6004654,19.3113208 13.6899163,19.2264151 13.7793673,19.2264151 L14.7036935,19.2264151 C14.7931444,19.2264151 14.8527784,19.2830189 14.8825954,19.3396226 C14.9422293,19.5943396 15.1807651,19.8207547 15.4789349,19.8207547 L16.2839932,19.8207547 C16.7610649,19.8207547 17.1785025,19.509434 17.2381365,19.0566038 C17.2977704,18.5471698 16.8803328,18.1226415 16.3436272,18.1226415 L15.7472877,18.1226415 C14.6142426,18.1226415 13.6004654,17.3301887 13.5110145,16.2830189 C13.3917466,15.1509434 14.2564389,14.1886792 15.359667,14.0471698 L15.359667,13.1698113 C15.359667,13.0849057 15.4491179,13 15.5385688,13 L16.4330781,13 Z M25,7 C26.6568542,7 28,8.34314575 28,10 C28,11.6568542 26.6568542,13 25,13 L24,13 L24,11 L25,11 C25.5522847,11 26,10.5522847 26,10 C26,9.48716416 25.6139598,9.06449284 25.1166211,9.00672773 L25,9 L7,9 C6.44771525,9 6,9.44771525 6,10 C6,10.5128358 6.38604019,10.9355072 6.88337887,10.9932723 L7,11 L8,11 L8,13 L7,13 C5.34314575,13 4,11.6568542 4,10 C4,8.34314575 5.34314575,7 7,7 L25,7 Z" id="Shape" fill-rule="nonzero"/></g></svg>