<?xml version="1.0" encoding="UTF-8"?><svg viewBox="0 0 32 32" version="1.1" xmlns="http://www.w3.org/2000/svg" xmlns:xlink="http://www.w3.org/1999/xlink"><title>debug</title><g id="debug" stroke="none" stroke-width="1" fill-rule="evenodd"><path d="M18.0347979,4.52278837 C18.8026487,4.65818118 19.3303655,5.35529709 19.2698602,6.11701456 L19.2515372,6.26047227 L15.702886,26.3858734 C15.5590312,27.2017149 14.7810436,27.7464677 13.9652021,27.6026128 C13.1973513,27.46722 12.6696345,26.7701041 12.7301398,26.0083866 L12.7484628,25.8649289 L16.297114,5.73952773 C16.4409688,4.92368628 17.2189564,4.37893351 18.0347979,4.52278837 Z M10.5054018,9.72722723 C11.0280071,10.2498325 11.0587486,11.0780427 10.5976263,11.6366015 L10.5054018,11.7380309 L5.7431119,16.4997677 L10.5054018,21.2619691 C11.0280071,21.7845744 11.0587486,22.6127846 10.5976263,23.1713434 L10.5054018,23.2727728 C9.98279656,23.795378 9.15458632,23.8261195 8.59602753,23.3649972 L8.49459817,23.2727728 L2.72722723,17.5054018 C2.20462197,16.9827966 2.17388048,16.1545863 2.63500278,15.5960275 L2.72722723,15.4945982 L8.49459817,9.72722723 C9.04986627,9.17195914 9.95013373,9.17195914 10.5054018,9.72722723 Z M21.4945982,9.72722723 C22.0498663,9.17195914 22.9501337,9.17195914 23.5054018,9.72722723 L23.5054018,9.72722723 L29.2727728,15.4945982 L29.3649972,15.5960275 C29.8261195,16.1545863 29.795378,16.9827966 29.2727728,17.5054018 L29.2727728,17.5054018 L23.5054018,23.2727728 L23.4039725,23.3649972 C22.8454137,23.8261195 22.0172034,23.795378 21.4945982,23.2727728 L21.4945982,23.2727728 L21.4023737,23.1713434 C20.9412514,22.6127846 20.9719929,21.7845744 21.4945982,21.2619691 L21.4945982,21.2619691 L26.2570838,16.4999634 L21.4945982,11.7380309 L21.4023737,11.6366015 C20.9412514,11.0780427 20.9719929,10.2498325 21.4945982,9.72722723 Z" id="Combined-Shape" fill-rule="nonzero"/></g></svg>