<?xml version="1.0" encoding="UTF-8"?><svg viewBox="0 0 32 32" version="1.1" xmlns="http://www.w3.org/2000/svg" xmlns:xlink="http://www.w3.org/1999/xlink"><title>delete</title><g id="delete" stroke="none" stroke-width="1" fill-rule="evenodd"><path d="M26,6 C27.1045695,6 28,6.8954305 28,8 L28,24 C28,25.1045695 27.1045695,26 26,26 L12.0399484,26 C11.3880785,26 10.7771108,25.6823125 10.4027155,25.1486811 L4.80407957,17.1688586 C4.32129177,16.4807337 4.32031035,15.5641624 4.80162343,14.8750052 L10.4029813,6.85482766 C10.7770994,6.31915512 11.3892874,6 12.0426704,6 L26,6 Z M26,8 L12.0426704,8 L6.44131252,16.0201775 L12.0399484,24 L26,24 L26,8 Z" id="Rectangle" fill-rule="nonzero"/><path d="M18,10 C18.5522847,10 19,10.4477153 19,11 L19,15 L23,15 C23.5522847,15 24,15.4477153 24,16 C24,16.5522847 23.5522847,17 23,17 L19,17 L19,21 C19,21.5522847 18.5522847,22 18,22 C17.4477153,22 17,21.5522847 17,21 L17,17 L13,17 C12.4477153,17 12,16.5522847 12,16 C12,15.4477153 12.4477153,15 13,15 L17,15 L17,11 C17,10.4477153 17.4477153,10 18,10 Z" id="Combined-Shape" transform="translate(18.000000, 16.000000) rotate(45.000000) translate(-18.000000, -16.000000) "/></g></svg>