<?xml version="1.0" encoding="UTF-8"?><svg viewBox="0 0 32 32" version="1.1" xmlns="http://www.w3.org/2000/svg" xmlns:xlink="http://www.w3.org/1999/xlink"><title>exit</title><g id="exit" stroke="none" stroke-width="1" fill-rule="evenodd"><g id="Group" transform="translate(5.000000, 6.000000)" fill-rule="nonzero"><polygon id="Path" points="22 10 13.999 2.001 13.999 6 5.999 6 5.999 14 13.999 14 13.999 18"/><path d="M4,20 L9,20 C9.552,20 10,19.552 10,19 C10,18.447 9.552,18 9,18 L4,18 C2.897,18 2,17.103 2,16 L2,4 C2,2.897 2.897,2 4,2 L9,2 C9.552,2 10,1.553 10,1 C10,0.447 9.552,0 9,0 L4,0 C1.8,0 0,1.8 0,4 L0,16 C0,18.2 1.8,20 4,20 Z" id="Path"/></g></g></svg>