<?xml version="1.0" encoding="UTF-8"?><svg viewBox="0 0 32 32" version="1.1" xmlns="http://www.w3.org/2000/svg" xmlns:xlink="http://www.w3.org/1999/xlink"><title>external</title><g id="external" stroke="none" stroke-width="1" fill-rule="evenodd"><path d="M27.6236882,3 L19.8515742,3 C19.095952,3 18.4752624,3.62068966 18.4752624,4.37631184 C18.4752624,5.13193403 19.095952,5.75262369 19.8515742,5.75262369 L24.2773613,5.75262369 L11.4047976,18.6521739 C10.8650675,19.191904 10.8650675,20.0554723 11.4047976,20.5952024 C11.6746627,20.8650675 12.0254873,21 12.3763118,21 C12.7271364,21 13.077961,20.8650675 13.3478261,20.5952024 L26.2473763,7.72263868 L26.2473763,12.1484258 C26.2473763,12.904048 26.868066,13.5247376 27.6236882,13.5247376 C28.3793103,13.5247376 29,12.904048 29,12.1484258 L29,4.37631184 C29,3.62068966 28.3793103,3 27.6236882,3 Z" id="Path" fill-rule="nonzero"/><path d="M24.6031746,15.1330891 C23.8510379,15.1330891 23.2332112,15.7509158 23.2332112,16.5030525 L23.2332112,22.009768 C23.2332112,23.7826618 21.7826618,25.2063492 20.03663,25.2063492 L9.96336996,25.2063492 C8.19047619,25.2063492 6.76678877,23.7557998 6.76678877,22.009768 L6.76678877,11.9365079 C6.76678877,10.1636142 8.21733822,8.73992674 9.96336996,8.73992674 L15.4700855,8.73992674 C16.2222222,8.73992674 16.8400488,8.12210012 16.8400488,7.36996337 C16.8400488,6.61782662 16.2222222,6 15.4700855,6 L9.96336996,6 C6.68620269,6 4,8.65934066 4,11.96337 L4,22.03663 C4,25.3137973 6.65934066,28 9.96336996,28 L20.03663,28 C23.3137973,28 26,25.3406593 26,22.03663 L26,16.5030525 C25.973138,15.7509158 25.3553114,15.1330891 24.6031746,15.1330891 Z" id="Path" fill-rule="nonzero"/></g></svg>