<?xml version="1.0" encoding="UTF-8"?><svg viewBox="0 0 32 32" version="1.1" xmlns="http://www.w3.org/2000/svg" xmlns:xlink="http://www.w3.org/1999/xlink"><title>fee</title><g id="fee" stroke="none" stroke-width="1" fill-rule="evenodd"><path d="M20.806,3.99961184 L27,10.1916118 L27,28 L5,28 L5,4 L20.806,3.99961184 Z M19.5,5 L6,4.999 L6,27 L26,27 L26,11.5 L19.5,11.5 L19.5,5 Z M20.5,5.10661184 L20.5,10.5 L25.895,10.4996118 L20.5,5.10661184 Z" id="Shape" fill-rule="nonzero"/><circle id="Oval" cx="9.75" cy="8.75" r="1.25"/><circle id="Oval" cx="15.25" cy="14.25" r="1.25"/><rect id="Rectangle" x="8.5" y="18" width="15" height="1" rx="0.5"/><rect id="Rectangle-Copy" x="8.5" y="21" width="15" height="1" rx="0.5"/><rect id="Rectangle-Copy-2" x="8.5" y="24" width="15" height="1" rx="0.5"/><path d="M14.9696699,7.96966991 C15.2625631,7.6767767 15.7374369,7.6767767 16.0303301,7.96966991 C16.2965966,8.23593648 16.3208027,8.65260016 16.1029482,8.94621165 L16.0303301,9.03033009 L10.0303301,15.0303301 C9.73743687,15.3232233 9.26256313,15.3232233 8.96966991,15.0303301 C8.70340335,14.7640635 8.6791973,14.3473998 8.89705176,14.0537883 L8.96966991,13.9696699 L14.9696699,7.96966991 Z" id="Line-2" fill-rule="nonzero"/></g></svg>