<?xml version="1.0" encoding="UTF-8"?><svg viewBox="0 0 32 32" version="1.1" xmlns="http://www.w3.org/2000/svg" xmlns:xlink="http://www.w3.org/1999/xlink"><title>heart</title><g id="heart" stroke="none" stroke-width="1" fill-rule="evenodd"><path d="M6.05385475,17.0158211 L14.7879864,25.7499613 C15.4573788,26.4193266 16.5426496,26.4193266 17.2120419,25.7499613 L25.946165,17.0158211 C27.1371792,15.8630815 27.8637063,14.3133138 27.9879418,12.6604711 C28.1012382,10.8078074 27.4119898,8.99595138 26.095986,7.68700791 C25.9511902,7.54210355 25.8008864,7.40508691 25.6450746,7.27595798 C23.2259726,5.38502082 19.7696085,5.62570877 17.635939,7.83368351 L16.7537771,8.71584544 C16.3374216,9.13200749 15.6625811,9.13200749 15.2462255,8.71584544 L14.3600869,7.8297325 C12.2267109,5.62092023 8.76897279,5.38195098 6.35202257,7.27628366 C6.19718214,7.40541258 6.04778398,7.54232638 5.90382809,7.68702505 C4.58786517,8.99598217 3.89868733,10.8078497 4.01207797,12.6604883 C4.13632067,14.3133241 4.86284695,15.863084 6.05385475,17.0158211 L6.05385475,17.0158211 Z" id="Path" fill-rule="nonzero"/></g></svg>