<?xml version="1.0" encoding="UTF-8"?><svg viewBox="0 0 32 32" version="1.1" xmlns="http://www.w3.org/2000/svg" xmlns:xlink="http://www.w3.org/1999/xlink"><title>help</title><g id="help" stroke="none" stroke-width="1" fill-rule="evenodd"><path d="M16,5 C18.2953094,5 20.4264205,5.70301659 22.1897567,6.9054732 C22.7386751,6.43867173 23.5450809,6.43224289 24.1021447,6.88544315 L24.2175144,6.98959236 L25.0104076,7.78248558 C25.5595824,8.33166036 25.5939058,9.20072277 25.1133779,9.78988351 L25.0945268,9.81024331 C26.2969834,11.5735795 27,13.7046906 27,16 C27,18.2953094 26.2969834,20.4264205 25.0945268,22.1897567 C25.5613283,22.7386751 25.5677571,23.5450809 25.1145569,24.1021447 L25.0104076,24.2175144 L24.2175144,25.0104076 C23.6683396,25.5595824 22.7992772,25.5939058 22.2101165,25.1133779 L22.1897567,25.0945268 C20.4264205,26.2969834 18.2953094,27 16,27 C13.7046906,27 11.5735795,26.2969834 9.81024331,25.0945268 C9.26132487,25.5613283 8.45491914,25.5677571 7.89785525,25.1145569 L7.78248558,25.0104076 L6.98959236,24.2175144 C6.44041757,23.6683396 6.40609415,22.7992772 6.88662209,22.2101165 L6.9054732,22.1897567 C5.70301659,20.4264205 5,18.2953094 5,16 C5,13.7046906 5.70301659,11.5735795 6.9054732,9.81024331 C6.43867173,9.26132487 6.43224289,8.45491914 6.88544315,7.89785525 L6.98959236,7.78248558 L7.78248558,6.98959236 C8.33166036,6.44041757 9.20072277,6.40609415 9.78988351,6.88662209 L9.81024331,6.9054732 C11.5735795,5.70301659 13.7046906,5 16,5 Z M12.1966991,19.0104076 C12.0231328,18.8368413 11.7537084,18.8175561 11.5588402,18.9525522 L11.4895924,19.0104076 L7.69669914,22.8033009 C7.52313279,22.9768672 7.50384764,23.2462916 7.63884369,23.4411598 L7.69669914,23.5104076 L8.48959236,24.3033009 C8.66315871,24.4768672 8.93258311,24.4961524 9.12745125,24.3611563 L9.19669914,24.3033009 L12.9895924,20.5104076 C13.1631587,20.3368413 13.1824439,20.0674169 13.0474478,19.8725487 L12.9895924,19.8033009 L12.1966991,19.0104076 Z M20.5104076,19.0104076 C20.3368413,18.8368413 20.0674169,18.8175561 19.8725487,18.9525522 L19.8033009,19.0104076 L19.0104076,19.8033009 C18.8368413,19.9768672 18.8175561,20.2462916 18.9525522,20.4411598 L19.0104076,20.5104076 L22.8033009,24.3033009 C22.9768672,24.4768672 23.2462916,24.4961524 23.4411598,24.3611563 L23.5104076,24.3033009 L24.3033009,23.5104076 C24.4768672,23.3368413 24.4961524,23.0674169 24.3611563,22.8725487 L24.3033009,22.8033009 L20.5104076,19.0104076 Z M16,11 C15.3136812,11 14.6596594,11.1382794 14.064275,11.3884976 C14.2147781,11.8580993 14.1268299,12.3872282 13.8014388,12.7877092 L13.6966991,12.9038059 L12.9038059,13.6966991 C12.4936493,14.1068558 11.9050594,14.2298285 11.3879075,14.0656172 C11.1382794,14.6596594 11,15.3136812 11,16 C11,16.6863188 11.1382794,17.3403406 11.3884976,17.935725 C11.8580993,17.7852219 12.3872282,17.8731701 12.7877092,18.1985612 L12.9038059,18.3033009 L13.6966991,19.0961941 C14.1068558,19.5063507 14.2298285,20.0949406 14.0656172,20.6120925 C14.6596594,20.8617206 15.3136812,21 16,21 C16.6863188,21 17.3403406,20.8617206 17.935725,20.6115024 C17.7852219,20.1419007 17.8731701,19.6127718 18.1985612,19.2122908 L18.3033009,19.0961941 L19.0961941,18.3033009 C19.5063507,17.8931442 20.0949406,17.7701715 20.6120925,17.9343828 C20.8617206,17.3403406 21,16.6863188 21,16 C21,15.3136812 20.8617206,14.6596594 20.6115024,14.064275 C20.1419007,14.2147781 19.6127718,14.1268299 19.2122908,13.8014388 L19.0961941,13.6966991 L18.3033009,12.9038059 C17.8931442,12.4936493 17.7701715,11.9050594 17.9343828,11.3879075 C17.3403406,11.1382794 16.6863188,11 16,11 Z M23.5104076,7.69669914 C23.3368413,7.52313279 23.0674169,7.50384764 22.8725487,7.63884369 L22.8033009,7.69669914 L19.0104076,11.4895924 C18.8368413,11.6631587 18.8175561,11.9325831 18.9525522,12.1274513 L19.0104076,12.1966991 L19.8033009,12.9895924 C19.9768672,13.1631587 20.2462916,13.1824439 20.4411598,13.0474478 L20.5104076,12.9895924 L24.3033009,9.19669914 C24.4768672,9.02313279 24.4961524,8.75370839 24.3611563,8.55884025 L24.3033009,8.48959236 L23.5104076,7.69669914 Z M9.19669914,7.69669914 C9.02313279,7.52313279 8.75370839,7.50384764 8.55884025,7.63884369 L8.48959236,7.69669914 L7.69669914,8.48959236 C7.52313279,8.66315871 7.50384764,8.93258311 7.63884369,9.12745125 L7.69669914,9.19669914 L11.4895924,12.9895924 C11.6631587,13.1631587 11.9325831,13.1824439 12.1274513,13.0474478 L12.1966991,12.9895924 L12.9895924,12.1966991 C13.1631587,12.0231328 13.1824439,11.7537084 13.0474478,11.5588402 L12.9895924,11.4895924 L9.19669914,7.69669914 Z" id="Shape"/></g></svg>