<?xml version="1.0" encoding="UTF-8"?><svg viewBox="0 0 32 32" version="1.1" xmlns="http://www.w3.org/2000/svg" xmlns:xlink="http://www.w3.org/1999/xlink"><title>info</title><g id="info" stroke="none" stroke-width="1" fill-rule="evenodd"><path d="M16,4 C19.1825979,4 22.2348448,5.26428208 24.4852814,7.51471863 C26.7357179,9.76515517 28,12.8174021 28,16 C28,22.627417 22.627417,28 16,28 C9.372583,28 4,22.627417 4,16 C4,9.372583 9.372583,4 16,4 Z M16,6 C10.4771525,6 6,10.4771525 6,16 C6,21.5228475 10.4771525,26 16,26 C21.5228475,26 26,21.5228475 26,16 C26,13.3478351 24.9464316,10.804296 23.0710678,8.92893219 C21.195704,7.0535684 18.6521649,6 16,6 Z M17,14 L17,21 L18,21 L18,23 L14,23 L14,21 L15,21 L15,16 L14,16 L14,14 L17,14 Z M16,9 C16.8284271,9 17.5,9.67157288 17.5,10.5 C17.5,11.3284271 16.8284271,12 16,12 C15.1715729,12 14.5,11.3284271 14.5,10.5 C14.5,9.67157288 15.1715729,9 16,9 Z" id="Combined-Shape" fill-rule="nonzero"/></g></svg>