<?xml version="1.0" encoding="UTF-8"?><svg viewBox="0 0 32 32" version="1.1" xmlns="http://www.w3.org/2000/svg" xmlns:xlink="http://www.w3.org/1999/xlink"><title>interest</title><g id="interest" stroke="none" stroke-width="1" fill-rule="evenodd"><path d="M10.8013318,16.0744325 C11.9143522,16.0744325 12.8057896,15.7761746 13.4756441,15.1796586 C14.1454986,14.5831427 14.5100383,13.7781102 14.5692632,12.764561 C14.601939,12.3253563 14.6182769,11.9368291 14.6182769,11.5989794 C14.6182769,11.2611297 14.601939,10.85571 14.5692632,10.3827204 C14.5100383,9.35861341 14.1618365,8.53879993 13.5246578,7.92327996 C12.8874792,7.30775999 11.9797039,7 10.8013318,7 C9.63317102,7 8.72794848,7.30775999 8.08566425,7.92327996 C7.44338002,8.53879993 7.09262543,9.35861341 7.03340049,10.3827204 C7.01706258,10.85571 7.00634082,11.2611297 7.00123523,11.5989794 C6.99612963,11.9368291 7.00685138,12.3253563 7.03340049,12.764561 C7.10283663,13.7781102 7.46992913,14.5831427 8.13467799,15.1796586 C8.79942686,15.7761746 9.68831147,16.0744325 10.8013318,16.0744325 Z M10.5960868,24.8638043 C10.8248176,24.8638043 10.9958551,24.8215731 11.1091994,24.7371107 C11.2225437,24.6526482 11.3363985,24.5344008 11.4507639,24.3823685 L11.4507639,24.3823685 L23.5479679,7.91219426 C23.6133196,7.82773183 23.6459954,7.73482316 23.6459954,7.63346824 C23.6459954,7.29561851 23.4621939,7.12669365 23.0945908,7.12669365 L23.0945908,7.12669365 L21.3454129,7.12669365 C21.1228088,7.12669365 20.953303,7.16892486 20.8368954,7.2533873 C20.7204877,7.33784973 20.6051012,7.45609713 20.4907358,7.60812951 L20.4907358,7.60812951 L8.39353181,24.0783037 C8.32818016,24.1627661 8.29550433,24.2556748 8.29550433,24.3570297 C8.29550433,24.6948795 8.47930586,24.8638043 8.84690892,24.8638043 L8.84690892,24.8638043 L10.5960868,24.8638043 Z M10.8013318,13.8794651 C10.5358407,13.8794651 10.3214056,13.8187577 10.1580265,13.697343 C9.99464736,13.5759282 9.8772186,13.418089 9.80574023,13.2238254 C9.73426186,13.0295619 9.68729035,12.8300194 9.66482572,12.625198 C9.64848781,12.2366708 9.64031885,11.8803449 9.64031885,11.5562203 C9.64031885,11.2320957 9.64848781,10.8873834 9.66482572,10.5220834 C9.68729035,10.1947915 9.78174392,9.90234031 9.94818641,9.6447299 C10.1146289,9.38711948 10.3990107,9.25831427 10.8013318,9.25831427 C11.203653,9.25831427 11.4895665,9.38711948 11.6590723,9.6447299 C11.8285782,9.90234031 11.9215001,10.1947915 11.937838,10.5220834 C11.9705138,10.8873834 11.9868517,11.2320957 11.9868517,11.5562203 C11.9868517,11.8803449 11.9705138,12.2366708 11.937838,12.625198 C11.9317113,12.8300194 11.8888242,13.0295619 11.8091769,13.2238254 C11.7295296,13.418089 11.6105691,13.5759282 11.4522956,13.697343 C11.2940221,13.8187577 11.0770341,13.8794651 10.8013318,13.8794651 Z M21.1830549,25 C22.2960753,25 23.1875127,24.6938237 23.8573672,24.0814711 C24.5272216,23.4691184 24.8917613,22.6561675 24.9509863,21.6426183 C24.9836621,21.2034137 25,20.8148865 25,20.4770368 C25,20.139187 24.9836621,19.7337674 24.9509863,19.2607778 C24.8917613,18.2366708 24.5435595,17.4168573 23.9063809,16.8013373 C23.2692023,16.1858173 22.3614269,15.8780574 21.1830549,15.8780574 C20.0148941,15.8780574 19.1096715,16.1858173 18.4673873,16.8013373 C17.8251031,17.4168573 17.4743485,18.2366708 17.4151235,19.2607778 C17.3987856,19.7337674 17.3880639,20.139187 17.3829583,20.4770368 C17.3778527,20.8148865 17.3885744,21.2034137 17.4151235,21.6426183 C17.4845597,22.6561675 17.8516522,23.4691184 18.516401,24.0814711 C19.1811499,24.6938237 20.0700345,25 21.1830549,25 Z M21.1830549,22.7575224 C20.9175638,22.7575224 20.7031287,22.6968151 20.5397496,22.5754003 C20.3763704,22.4539856 20.2589417,22.2961464 20.1874633,22.1018828 C20.1159849,21.9076192 20.0690134,21.7080767 20.0465488,21.5032553 C20.0302109,21.1147281 20.0220419,20.7584023 20.0220419,20.4342777 C20.0220419,20.1101531 20.0302109,19.7654408 20.0465488,19.4001408 C20.0690134,19.0728488 20.163467,18.7803977 20.3299095,18.5227873 C20.496352,18.2651768 20.7807338,18.1363716 21.1830549,18.1363716 C21.585376,18.1363716 21.8712895,18.2651768 22.0407954,18.5227873 C22.2103012,18.7803977 22.3032231,19.0728488 22.319561,19.4001408 C22.3522369,19.7654408 22.3685748,20.1101531 22.3685748,20.4342777 C22.3685748,20.7584023 22.3522369,21.1147281 22.319561,21.5032553 C22.3134343,21.7080767 22.2705473,21.9076192 22.1909,22.1018828 C22.1112526,22.2961464 21.9922922,22.4539856 21.8340187,22.5754003 C21.6757451,22.6968151 21.4587572,22.7575224 21.1830549,22.7575224 Z" id="%" fill-rule="nonzero"/></g></svg>