<?xml version="1.0" encoding="UTF-8"?><svg viewBox="0 0 32 32" version="1.1" xmlns="http://www.w3.org/2000/svg" xmlns:xlink="http://www.w3.org/1999/xlink"><title>menu</title><g id="menu" stroke="none" stroke-width="1" fill-rule="evenodd"><path d="M26,22 C26.5522847,22 27,22.4477153 27,23 L27,24 C27,24.5522847 26.5522847,25 26,25 L6,25 C5.44771525,25 5,24.5522847 5,24 L5,23 C5,22.4477153 5.44771525,22 6,22 L26,22 Z M26,14.5 C26.5522847,14.5 27,14.9477153 27,15.5 L27,16.5 C27,17.0522847 26.5522847,17.5 26,17.5 L6,17.5 C5.44771525,17.5 5,17.0522847 5,16.5 L5,15.5 C5,14.9477153 5.44771525,14.5 6,14.5 L26,14.5 Z M26,7 C26.5522847,7 27,7.44771525 27,8 L27,9 C27,9.55228475 26.5522847,10 26,10 L6,10 C5.44771525,10 5,9.55228475 5,9 L5,8 C5,7.44771525 5.44771525,7 6,7 L26,7 Z" id="Combined-Shape"/></g></svg>