<?xml version="1.0" encoding="UTF-8"?><svg viewBox="0 0 32 32" version="1.1" xmlns="http://www.w3.org/2000/svg" xmlns:xlink="http://www.w3.org/1999/xlink"><title>padlock</title><g id="padlock" stroke="none" stroke-width="1" fill-rule="evenodd"><path d="M15.5238095,20.8139561 L15.5238095,20.8139561 C14.9685714,20.6308382 14.5714286,20.1365977 14.5714286,19.5561317 C14.5714286,18.8201044 15.2114286,18.222749 16,18.222749 C16.7885714,18.222749 17.4285714,18.8201044 17.4285714,19.5561317 C17.4285714,20.1365977 17.0314286,20.6308382 16.4761905,20.8139561 L16.4761905,23.1198193 C16.4761905,23.3536057 16.2628571,23.5562799 16,23.5562799 C15.7447619,23.5562799 15.5238095,23.3607171 15.5238095,23.1198193 L15.5238095,20.8139561 Z M8.85714286,13.7781399 L8.85714286,13.7781399 L8.85714286,13.7781399 C7.27809524,13.7825845 6,14.9692952 6,16.4529057 L6,25.3252343 C6,26.8026223 7.28190476,28 8.86571429,28 L23.1342857,28 C24.7171429,28 26,26.8115115 26,25.3252343 L26,16.4529057 C26,14.9781844 24.7228571,13.7816956 23.1428571,13.7781399 L23.1428571,10.6660247 C23.1428571,6.98411052 19.9371429,4 16,4 C12.0552381,4 8.85714286,6.98411052 8.85714286,10.6660247 L8.85714286,13.7781399 Z M11.7142857,13.7781399 L11.7142857,10.6678025 C11.7142857,8.45260936 13.6333333,6.66676544 16,6.66676544 C18.3619048,6.66676544 20.2857143,8.45794289 20.2857143,10.6678025 L20.2857143,13.7781399 L11.7142857,13.7781399 Z" id="Shape" fill-rule="nonzero"/></g></svg>