<?xml version="1.0" encoding="UTF-8"?><svg viewBox="0 0 32 32" version="1.1" xmlns="http://www.w3.org/2000/svg" xmlns:xlink="http://www.w3.org/1999/xlink"><title>prefs</title><g id="prefs" stroke="none" stroke-width="1" fill-rule="evenodd"><path d="M16,21 C16.5522847,21 17,21.4477153 17,22 L17,25 C17,25.5522847 16.5522847,26 16,26 L13,26 C12.4477153,26 12,25.5522847 12,25 L12,22 C12,21.4477153 12.4477153,21 13,21 L16,21 Z M11,22 L11,25 L6,25 C5.44771525,25 5,24.5522847 5,24 L5,23 C5,22.4477153 5.44771525,22 6,22 L11,22 L11,22 Z M26,22 C26.5522847,22 27,22.4477153 27,23 L27,24 C27,24.5522847 26.5522847,25 26,25 L18,25 L18,25 L18,22 L26,22 Z M21,13.5 C21.5522847,13.5 22,13.9477153 22,14.5 L22,17.5 C22,18.0522847 21.5522847,18.5 21,18.5 L18,18.5 C17.4477153,18.5 17,18.0522847 17,17.5 L17,14.5 C17,13.9477153 17.4477153,13.5 18,13.5 L21,13.5 Z M16,14.5 L16,17.5 L6,17.5 C5.44771525,17.5 5,17.0522847 5,16.5 L5,15.5 C5,14.9477153 5.44771525,14.5 6,14.5 L16,14.5 L16,14.5 Z M26,14.5 C26.5522847,14.5 27,14.9477153 27,15.5 L27,16.5 C27,17.0522847 26.5522847,17.5 26,17.5 L23,17.5 L23,17.5 L23,14.5 L26,14.5 Z M13,6 C13.5522847,6 14,6.44771525 14,7 L14,10 C14,10.5522847 13.5522847,11 13,11 L10,11 C9.44771525,11 9,10.5522847 9,10 L9,7 C9,6.44771525 9.44771525,6 10,6 L13,6 Z M8,7 L8,10 L6,10 C5.44771525,10 5,9.55228475 5,9 L5,8 C5,7.44771525 5.44771525,7 6,7 L8,7 L8,7 Z M26,7 C26.5522847,7 27,7.44771525 27,8 L27,9 C27,9.55228475 26.5522847,10 26,10 L15,10 L15,10 L15,7 L26,7 Z" id="Combined-Shape"/></g></svg>