<?xml version="1.0" encoding="UTF-8"?><svg viewBox="0 0 32 32" version="1.1" xmlns="http://www.w3.org/2000/svg" xmlns:xlink="http://www.w3.org/1999/xlink"><title>refresh</title><g id="refresh" stroke="none" stroke-width="1" fill-rule="evenodd"><path d="M18.6078391,4.40878309 C24.1387236,5.73363431 28,10.2991997 28,16.0615637 C28,19.1101991 26.7933511,22.0603324 24.6854094,24.2815514 L26.6997743,26.2959163 C27.3301867,26.9263288 26.8820029,28 26.0004104,28 L18.9969218,28 C18.450236,28 17.997127,27.546891 17.997127,27.0002052 L17.997127,20.0016417 C17.997127,19.1151242 19.0757234,18.6669403 19.7012108,19.2973528 L21.8436282,21.4397702 C23.2177304,19.967166 24.0008208,18.0168274 24.0008208,16.0024625 C24.0008208,12.0229838 21.7303509,9.79683973 18.3566591,8.35871127 C18.1399549,8.2848348 17.997127,8.12723168 17.997127,7.89082701 L17.997127,4.89144264 C17.997127,4.5811615 18.3615842,4.37430741 18.6078391,4.40878309 Z M12.9981531,4 C13.5448389,4 13.9979479,4.45310897 13.9979479,4.99979479 L13.9979479,11.9983583 C13.9979479,12.8848758 12.9242766,13.3330597 12.2987892,12.7026472 L10.1415966,10.5454545 C8.76749436,12.0279089 7.99917915,13.9831726 7.99917915,15.9975375 C7.99917915,19.9770162 10.264724,22.2031603 13.6384158,23.6412887 C13.8600451,23.7200903 13.9979479,23.8727683 13.9979479,24.109173 L13.9979479,27.2169095 C13.9979479,27.5862918 13.6876667,27.7882208 13.3921609,27.7192694 C7.84157603,26.3747178 4,21.7648266 4,15.9975375 C4,12.9341268 5.21649908,9.95444285 7.3145906,7.73322389 L5.29530064,5.70408373 C4.66981326,5.07367125 5.11307203,4 5.99958958,4 L12.9981531,4 Z" id="Combined-Shape" transform="translate(16.000000, 16.000000) rotate(90.000000) translate(-16.000000, -16.000000) "/></g></svg>