<?xml version="1.0" encoding="UTF-8"?><svg viewBox="0 0 32 32" version="1.1" xmlns="http://www.w3.org/2000/svg" xmlns:xlink="http://www.w3.org/1999/xlink"><title>submit</title><g id="submit" stroke="none" stroke-width="1" fill-rule="evenodd"><path d="M18.477348,6.13437697 L27.8586154,15.352248 C27.9604423,15.44801 28.0061121,15.5759047 27.9993462,15.7022087 C28.0061121,15.8281945 27.9604423,15.9564074 27.8586154,16.0521694 L18.477348,25.8654242 C18.2865494,26.0448586 17.9746412,26.0448586 17.7838426,25.8654242 L15.8041384,24.0036335 C15.6133399,23.8241991 15.6133399,23.5308685 15.8041384,23.3514341 L20.9942651,17.4796907 L4.49052821,17.4796907 C4.22090684,17.4796907 4,17.2722595 4,17.0183789 L4,14.3857203 C4,14.1321579 4.22056855,13.9244085 4.49052821,13.9244085 L20.9942651,13.9244085 L15.8041384,8.64804896 C15.6133399,8.46861458 15.6133399,8.17528392 15.8041384,7.99584954 L17.7838426,6.13405882 C17.9746412,5.95526074 18.2865494,5.95526074 18.477348,6.13437697 Z" id="Path" fill-rule="nonzero"/></g></svg>