<?xml version="1.0" encoding="UTF-8"?><svg viewBox="0 0 32 32" version="1.1" xmlns="http://www.w3.org/2000/svg" xmlns:xlink="http://www.w3.org/1999/xlink"><title>transfer-out</title><g id="transfer-out" stroke="none" stroke-width="1" fill-rule="evenodd"><path d="M23.6542105,11.8947368 C24.2557143,11.437594 25.1092768,11.828285 25.1892045,12.5430515 L25.1952632,12.6526316 L25.1952632,13.8147368 L27.8006059,13.8141926 C27.5731624,14.5024683 27.45,15.2373645 27.45,16 C27.45,16.9620405 27.6459886,17.8799395 28.000064,18.7157951 L25.1952632,18.7157895 L25.1952632,19.8526316 C25.1952632,20.5984962 24.3703437,21.0464733 23.7461983,20.6728045 L23.6542105,20.6105263 L18.8289474,17.0231579 C18.3573684,16.6694737 18.3259298,15.9636772 18.7346316,15.5630447 L18.8289474,15.4821053 L23.6542105,11.8947368 Z" id="Path" fill-rule="nonzero" transform="translate(23.225032, 16.252632) scale(-1, 1) translate(-23.225032, -16.252632) "/><path d="M11,9 C14.854251,9 18,12.145749 18,16 C18,19.854251 14.854251,23 11,23 C7.14574899,23 4,19.854251 4,16 C4,12.145749 7.14574899,9 11,9 Z M11.4330781,11.5 L10.5385688,11.5 C10.4670081,11.5 10.3954474,11.5543396 10.3696855,11.6195472 L10.359667,11.6698113 L10.359667,12.5471698 C9.25643887,12.6886792 8.39174656,13.6509434 8.51101447,14.7830189 C8.59620583,15.7803235 9.51978835,16.5465922 10.5863224,16.6173087 L10.7472877,16.6226415 L11.3436272,16.6226415 C11.8803328,16.6226415 12.2977704,17.0471698 12.2381365,17.5566038 C12.183472,17.9716981 11.828153,18.2678852 11.4018462,18.3143671 L11.2839932,18.3207547 L10.4789349,18.3207547 C10.1807651,18.3207547 9.94222932,18.0943396 9.88259536,17.8396226 C9.86023263,17.7971698 9.82109785,17.754717 9.76519102,17.7361439 L9.70369351,17.7264151 L8.77936725,17.7264151 C8.68991632,17.7264151 8.6004654,17.8113208 8.6004654,17.8962264 C8.68465451,18.6953385 9.34991354,19.3440295 10.1985048,19.4647719 L10.359667,19.4811321 L10.359667,20.3301887 C10.359667,20.3981132 10.4169156,20.4660377 10.4856139,20.4904906 L10.5385688,20.5 L11.4330781,20.5 C11.5046389,20.5 11.5761996,20.4456604 11.6019615,20.3804528 L11.61198,20.3301887 L11.61198,19.4528302 C12.5959402,19.3113208 13.4009985,18.6037736 13.4904495,17.6415094 C13.6047479,16.4481132 12.6784545,15.4626572 11.4988592,15.3826078 L11.3436272,15.3773585 L10.6280198,15.3773585 C10.0913142,15.3773585 9.67387653,14.9528302 9.73351048,14.4433962 C9.78817494,14.0283019 10.1434939,13.7321148 10.5698007,13.6856329 L10.6876537,13.6792453 L11.4927121,13.6792453 C11.7908818,13.6792453 12.0294176,13.9056604 12.0890516,14.1603774 C12.1114143,14.2028302 12.1505491,14.245283 12.2064559,14.2638561 L12.2679534,14.2735849 L13.1922797,14.2735849 C13.2817306,14.2735849 13.3711816,14.1886792 13.3711816,14.1037736 C13.2869924,13.3046615 12.6217334,12.6559705 11.7731422,12.5352281 L11.61198,12.5188679 L11.61198,11.6698113 C11.61198,11.6018868 11.5547314,11.5339623 11.4860331,11.5095094 L11.4330781,11.5 Z" id="Shape" fill-rule="nonzero"/></g></svg>