<?xml version="1.0" encoding="UTF-8"?><svg viewBox="0 0 32 32" version="1.1" xmlns="http://www.w3.org/2000/svg" xmlns:xlink="http://www.w3.org/1999/xlink"><title>transfer</title><g id="transfer" stroke="none" stroke-width="1" fill-rule="evenodd"><path d="M19.8159131,15.1157774 L25.7759551,20.9419914 C25.8603575,21.0244986 25.8982124,21.134691 25.8926043,21.2435127 C25.8982124,21.3520604 25.8603575,21.4625269 25.7759551,21.5450341 L19.8159131,27.3712481 C19.6577638,27.5258463 19.3992289,27.5258463 19.2410796,27.3712481 L17.6001402,25.7671548 C17.4419909,25.6125566 17.4419909,25.3598269 17.6001402,25.2052287 L20.086225,22.7749669 L6.40658955,22.7749669 C6.1831055,22.7749669 6,22.596247 6,22.377507 L6,20.1092444 C6,19.8907785 6.1828251,19.7117845 6.40658955,19.7117845 L20.086225,19.7117845 L17.6001402,17.2815227 C17.4419909,17.1269245 17.4419909,16.8741948 17.6001402,16.7195966 L19.2410796,15.1155032 C19.3992289,14.9614533 19.6577638,14.9614533 19.8159131,15.1157774 Z" id="Path" fill-rule="nonzero"/><path d="M12.0772331,17.3714194 L6.11719104,11.5452054 C6.03278865,11.4626982 5.99493377,11.3525058 6.0005419,11.243684 C5.99493377,11.1351364 6.03278865,11.0246699 6.11719104,10.9421627 L12.0772331,5.11594865 C12.2353824,4.96135045 12.4939173,4.96135045 12.6520666,5.11594865 L14.293006,6.72004203 C14.4511553,6.87464023 14.4511553,7.12736991 14.293006,7.28196811 L11.8069211,9.71222989 L25.4865566,9.71222989 C25.7100407,9.71222989 25.8931462,9.89094979 25.8931462,10.1096898 L25.8931462,12.3779524 C25.8931462,12.5964183 25.7103211,12.7754123 25.4865566,12.7754123 L11.8069211,12.7754123 L14.293006,15.2056741 C14.4511553,15.3602723 14.4511553,15.613002 14.293006,15.7676002 L12.6520666,17.3716935 C12.4939173,17.5257435 12.2353824,17.5257435 12.0772331,17.3714194 Z" id="Path" fill-rule="nonzero"/></g></svg>