<?xml version="1.0" encoding="UTF-8"?><svg viewBox="0 0 32 32" version="1.1" xmlns="http://www.w3.org/2000/svg" xmlns:xlink="http://www.w3.org/1999/xlink"><title>transfer-in</title><g id="transfer-in" stroke="none" stroke-width="1" fill-rule="evenodd"><path d="M9.20421053,11.8947368 C9.80571429,11.437594 10.6592768,11.828285 10.7392045,12.5430515 L10.7452632,12.6526316 L10.7452632,13.8147368 L13.3506059,13.8141926 C13.1231624,14.5024683 13,15.2373645 13,16 C13,16.9620405 13.1959886,17.8799395 13.550064,18.7157951 L10.7452632,18.7157895 L10.7452632,19.8526316 C10.7452632,20.5984962 9.92034372,21.0464733 9.29619832,20.6728045 L9.20421053,20.6105263 L4.37894737,17.0231579 C3.90736842,16.6694737 3.87592982,15.9636772 4.28463158,15.5630447 L4.37894737,15.4821053 L9.20421053,11.8947368 Z" id="Path" fill-rule="nonzero"/><path d="M21,9 C24.854251,9 28,12.145749 28,16 C28,19.854251 24.854251,23 21,23 C17.145749,23 14,19.854251 14,16 C14,12.145749 17.145749,9 21,9 Z M21.4330781,11.5 L20.5385688,11.5 C20.4670081,11.5 20.3954474,11.5543396 20.3696855,11.6195472 L20.359667,11.6698113 L20.359667,12.5471698 C19.2564389,12.6886792 18.3917466,13.6509434 18.5110145,14.7830189 C18.5962058,15.7803235 19.5197883,16.5465922 20.5863224,16.6173087 L20.7472877,16.6226415 L21.3436272,16.6226415 C21.8803328,16.6226415 22.2977704,17.0471698 22.2381365,17.5566038 C22.183472,17.9716981 21.828153,18.2678852 21.4018462,18.3143671 L21.2839932,18.3207547 L20.4789349,18.3207547 C20.1807651,18.3207547 19.9422293,18.0943396 19.8825954,17.8396226 C19.8602326,17.7971698 19.8210979,17.754717 19.765191,17.7361439 L19.7036935,17.7264151 L18.7793673,17.7264151 C18.6899163,17.7264151 18.6004654,17.8113208 18.6004654,17.8962264 C18.6846545,18.6953385 19.3499135,19.3440295 20.1985048,19.4647719 L20.359667,19.4811321 L20.359667,20.3301887 C20.359667,20.3981132 20.4169156,20.4660377 20.4856139,20.4904906 L20.5385688,20.5 L21.4330781,20.5 C21.5046389,20.5 21.5761996,20.4456604 21.6019615,20.3804528 L21.61198,20.3301887 L21.61198,19.4528302 C22.5959402,19.3113208 23.4009985,18.6037736 23.4904495,17.6415094 C23.6047479,16.4481132 22.6784545,15.4626572 21.4988592,15.3826078 L21.3436272,15.3773585 L20.6280198,15.3773585 C20.0913142,15.3773585 19.6738765,14.9528302 19.7335105,14.4433962 C19.7881749,14.0283019 20.1434939,13.7321148 20.5698007,13.6856329 L20.6876537,13.6792453 L21.4927121,13.6792453 C21.7908818,13.6792453 22.0294176,13.9056604 22.0890516,14.1603774 C22.1114143,14.2028302 22.1505491,14.245283 22.2064559,14.2638561 L22.2679534,14.2735849 L23.1922797,14.2735849 C23.2817306,14.2735849 23.3711816,14.1886792 23.3711816,14.1037736 C23.2869924,13.3046615 22.6217334,12.6559705 21.7731422,12.5352281 L21.61198,12.5188679 L21.61198,11.6698113 C21.61198,11.6018868 21.5547314,11.5339623 21.4860331,11.5095094 L21.4330781,11.5 Z" id="Shape" fill-rule="nonzero"/></g></svg>